<svg xmlns="http://www.w3.org/2000/svg" viewBox="0 0 200 200">
  <path fill="#FFF" d="M152 201c-49.1 0-98.3 0-147.4.1-2.7 0-3.7-.2-3.7-3.5C1 133.1 1 68.7.9 4.2.9 1.4 1.5.9 4.3.9c64.4.1 128.9.1 193.4 0 2.6 0 3.4.2 3.4 3.2-.1 64.6-.1 129.3 0 193.9 0 2.6-.7 3.1-3.1 3-13.3-.1-26.6-.1-40-.1-.1-2.2 1.8-2 3-2.5 6.1-2.4 6.9-3.7 6.4-10.4-1.4-6.7-2.8-13.3-4.3-20-.5-3.4-1.2-6.7-2-10-.2-.8-.4-1.6-.5-2.4-1-3.7-.7-7.6-1.7-11.3-1.2-14.9 1.3-29.5 4.3-44 .6-2.8 1.2-5.5 1.6-8.3 4.2-8.3 3.3-15.7-4.1-21.9-.2-.5-.2-1 0-1.5 1.2-1.9 3.3-2.2 5.1-2.9 11.8-4.7 18-15.3 16.8-28.9-.9-10.3-10.1-20.2-20.7-22.4-12.3-2.5-24.3 3.2-29.9 14.1-5.5 10.7-3.2 23 5.5 31.7 2.3 2.3 6.6 3 6.8 7.4-.2.5-.6.9-1 1.1-4 1.8-7.9 3.9-12.1 5.3-13 4.6-26.5 6.2-40.2 6.1-7.8-.1-15.5-1.6-23.2-3.2-1.8-.5-3.6-1.1-5.1-2.4-3-4.1-3.7-9.3-6.5-13.5-.6-1.4-1.2-2.8-.7-4.4 1.1-2 3.2-2.8 4.9-4.1 11-8.3 12.8-17 10.7-29.1-1.7-9.7-11.2-17-21.7-19.3-10.6-2.4-25 5.2-29.2 16.7-4.5 12.3-.3 25.5 10.4 32.4 1.7 1.1 3.6 1.8 4.6 3.7.2 3.5-2 6.4-2.5 9.8-1.3 6.6-.1 13 1.4 19.4 2 9.5 2.7 19.2 3.7 28.8.8 3.2-.1 6.6.9 9.9.8 5.2.3 10.6 1.3 15.8.6 3-.8 5.8-2.2 8.5-3.2 6-5.5 12.4-7.4 18.9-.7 2.5-.9 4.9.9 7 3 4.6 8.8 5.6 12.5 9.2 1.7 3.2 2.7 7 7.2 7.4 6.1.5 12.1.5 17.1-3.5 1.8-1.4 2.2-3.4 1.9-5.8-1.4-11.9-3.9-23.6-6.5-35.3-1.6-7.3.3-14.6.2-21.8 0-2.3 2.1-3.2 4.1-3.9 8.4-2.8 8.6-7.5 6.8-13.9-.2-.6.1.2-.1-.5-2.6-8.5-1.9-9.2 7.1-7.3 3.9.3 7.8-.2 11.7.4 11.3 2.4 21.6-1.2 31.9-5.1 1.4-.5 2.7-1.3 4.1-1.8 2.6-.7 4.6-2.8 7.3-3.4.5 0 1 .1 1.4.4 1.3 5.1-.8 9-4.6 12.1-2.2 1.8-4.6 3.2-7 4.8-7.9 5.4-6.6 15.9.5 20.5 1.2.8 2.7 1.4 3.5 2.7.5 2.4-.3 4.7-.6 7-1.3 5.7-2.3 11.5-3.5 17.2-1.1 8.5-3.3 16.9-3.1 25.6.2 7.1 1.4 8.8 8.4 10.7 1.9.5 3.9.7 5.8 1.4 3.8 2.9 7.7 5.5 12.5 6.6 1.1.2 2.4.7 2.1 2.3z"/>
  <path fill="#53453C" d="M168.7 188c2.7 5.7-1.9 10.2-6.7 11.6-1.3.4-3.1-.4-4 1.4h-6c-3.1-2.1-7.1-1.9-10.1-4.2-1.4-1.1-2.9-2.1-3.7-3.8-.1-1 .1-1.8 1.2-2.2 2.3.9 3.7 3.3 6.4 3.7 4.4 2.3 9.1 2.5 13.8 2.2 2.6-.1 4.7-1.1 6.3-3.2 1.5-1.5 0-4.6 2.8-5.5z"/>
  <path fill="#D35E27" d="M167.1 194c-5 5.3-14.2 5.8-22.4 1.2.3-.6.7-1.2 1.3-1.5 8.1-2.8 9.2-9.6 9.6-16.8 1-16.1-2.6-31.6-5.3-47.5-3.9 1-5.1 5.7-9.1 5.9-2.6-3.8-2.4-7.9.5-10.9 5.2-5.5 8.9-11.9 13.2-18 .7-.9 1.3-2 2.2-2.7 1.2-1 2-3.3 3.9-2.3 1.6.8 1.3 2.8 1.1 4.5-2.1 11.4-3.3 22.8-3.2 34.3 0 2.3.3 4.6 1 6.8.1 3.2.4 6.3 1.9 9.2.1.7.2 1.5.3 2.2.1 3.8 1.2 7.5 1.9 11.2 1.1 8.1 4.8 15.9 3.1 24.4z"/>
  <path fill="#3F3D3D" d="M80.9 100.9c-2.1-.8-4.3-1.2-7.1-1.1 1 3.1 2 5.8 2.7 8.6 1.9 7.6-.7 12.5-8 13.7-3.4.6-3.4 2.1-3.8 4.8-2.2 16 3 31.1 5.4 46.5.3 1.8.6 3.6.8 5.4 1.2 9-1.2 12.4-10.3 13.9-1.1.2-2.3.2-3.5.3-8.8.8-11.6-1-14.3-9.2-.6-.6-1.1-1.3-1.3-2.1-1.6-7.2-1.6-14.7-2.5-22-.4-2.4-.9-4.8.5-8.3-3.8 7.9-7.9 14.6-7.8 22.7-.1.8-.3 1.5-.9 2-2.4-1.8-2.7-4.1-2.1-7 1.7-7.4 4.5-14.4 8.2-21 1.8-3.3 2.1-6.4 1.6-9.9-.5-4.2-.6-8.5-.9-12.8-.1-1.6-1.5-3.6 1.1-4.6 2.4 3.3 2 7.3 2.2 11 1.2 14.5 2.9 28.9 4.4 43.4.4 3.9.8 7.9 2.4 11.6 4.5 3.8 14 3.7 17.8-.2 2.6-2.6 1.7-5.9 1.2-9-2-12.1-4.7-24.1-7.4-36.1-1.5-6.5-2.6-13-4.3-19.4-.5-1.9-.8-3.9 0-5.9.4-.7 1-1.2 1.8-1.5 4.3 2.5 2.9 7.3 4.5 10.3.7-7.7-1.5-15.8-1-24.1.1-1.3-.3-2.6.2-3.9 3.1-1.2 3.1 1.4 3.5 3.1 1.1 5 1.3 10.1 1.9 15.1.4 2.7 1.2 3.7 3.7 2.1 3.1-2 4-4.8 2.8-8.2-1.3-3.6-.6-8.2-5-10.3-2.7-1-5.2-2.4-8-2.9-6.8-4-14.4-6.7-20.3-12.2-.9-1.3-2.6-2.6-1-4.2s3.1 0 4.4.8c2.3 1.3 4.4 2.9 6.7 4.2 8.5 6.1 17.9 10.4 28.1 12.8 1.3.3 2.5.7 3.5 1.6.8.6.8 1.3.1 2z"/>
  <path fill="#3A3A3C" d="M143.6 67.9c1.3-3-1.8-2.8-2.9-3.5-14-9.6-17.1-27.1-7-40.5 7.2-9.7 19.6-13.5 31.1-9.7C176.6 18 184 28.3 184 40.9c0 12-7.7 22.8-19 26.6-1.3.5-3.1 0-4 1.7-6 2.7-11.7.4-17.4-1.3z"/>
  <path fill="#D25E27" d="M143.6 67.9c5.9-.7 11.6 1.9 17.5 1.4l-.1.2c.9 2.2 4.4 2.7 4 5.8-7.1.8-12 4.9-15.8 10.6-.3.4-.9.4-1.4.3-2.3-3.4-.4-6.3 1.3-9.2.7-1.3 1.8-2.5.8-4.1-.8-1.3-2.1-1.5-3.5-1.3-1.8.2-2 1.4-2 2.9 0 2.1 1.1 4.2.4 6.4-1.9 3.7-2.6 8.4-7.8 9.2h.1c-2.7.9-5 2.8-7.8 3.6-8.8 4.1-18.1 6.3-27.6 7.3-4.9.5-6.2-.8-4.9-5.6.8-2.9.5-5.5 0-8.3-1.2-6.6-.5-7.4 6.5-6.7 1.6 1.1.8 2-.4 2.5-2.5 1.1-2.2 2.9-1.5 5 .9 2.4 2.2 4.1 5.1 3.8 9.8-1 19.3-3 27.7-8.6 5-3.4 5-3.7.4-7.6-.4-.3-.7-.7-.9-1.2 2.3-3.4 6.7-3.6 9.6-6.2l.3-.2z"/>
  <path fill="#3C3B3C" d="M35.1 57.4c-7.8-4.4-14.4-9.9-17-19.1-2.8-9.9.5-22.3 8.2-28.6C36 1.8 46.5-.1 57.8 5.6c10.5 5.3 15.6 14.2 15.4 25.8-.2 10.2-5.1 18-13.7 23.4-1.2.8-2.5 1.6-3.7 2.5-6.9 3.9-13.8 4.3-20.7.1z"/>
  <path fill="#413E3C" d="M103.9 81.2c-1.3 0-2.7-.1-4-.1-2.2-.1-3.1.6-2.4 2.9 1.3 4.4 1.7 8.7-.1 13.2-1.5 3.9 1.9 2.6 3.4 2.5 9.1-1.1 18.1-2.4 26.6-6.2.7-.3 1.6-.4 2.4-.7.8-.3 1.1 0 1.1.8-10.2 5.3-21.1 8.1-32.5 8.7-1.6.1-3.3 0-4.7-1.1-.4-.7-.8-1.4-.8-2.2.1-3.6 2-6.9 1.5-10.5-.3-1.7-.5-3.5-1.8-4.9-3.6-2-7.8-1.6-11.7-2.2-4.1-.5-8.2-1.6-12.2-2.5-1.6-.4-3.8-.6-3.8-3.1.8-.4 1.6-.4 2.4 0 4.6.7 9.1 1.6 13.7 2.1 17.4 2.2 34.3-.1 51-5.1 1.2 0 1.3.6.8 1.5-8.3 5.3-17.7 6.6-27.2 7.5-.6.3-1.2-.1-1.7-.6z"/>
  <path fill="#D15E27" d="M35.1 57.4c6.9 2 13.8 1.6 20.7-.1.4 1.1.8 2.1 1.2 3.2.8 3.2 2.2 6.2 3.6 9.2 1.6 3.5.5 4.6-3 4.1-2.8-1.6-2-5.1-3.7-7.4-.2-.5-1 .1-.4-.2.1-.1.2 0 .3.3 1.1 2.2 2 4.4-1.5 5.4-3-.1-5.4-2.8-8.6-2.3-3.8-1.8-7.7-3.7-12.1-2.7 0-.5.1-.9.3-1.4.7-2.9 1.6-5.6 3.2-8.1z"/>
  <path fill="#3D3E42" d="M139.1 190.7c-.3.7-.7 1.5-1 2.2-1-.1-2-.2-2.9-.3-9.9-.9-13.3-4.4-13.2-14.3.1-8.3 1.7-16.4 3.3-24.5 2.3.7 1.8 2.7 2 4.3-1.3 6.3-.9 12.7-1.7 19.1-.4 2.7-.5 5.6 1.6 7.9.8.8 1.9 1.4 3 1.8 3.9 1.6 5.2.8 5.4-3.3.2-4.6.2-9.3 0-13.9-.5-11 .9-21.8 1.2-32.8.1-2.9.1-6 2.6-8.3 2.3 3.3 1.3 7.2 2.1 10.7.5 2.4 0 5 .2 7.5.8 13.2-1.3 26.4-1 39.6-.2 1.7-.4 3.2-1.6 4.3z"/>
  <path fill="#403E3E" d="M136.9 90c3.7-1.9 4.8-5.9 7.1-8.9l.5.5c1 4.3-2.4 7.3-3.1 11.2 2.5-.5 3.1-2.8 4.2-4.6.6-.6 1.3-.5 1.9-.3 4.6 1.3 4.8 2.2 1.4 5.6-4.7 4.5-10.2 8-15.2 12.1-1 .9-2.1 1.8-3.3 2.3-2.9 1.2-5.3 2.9-6.6 5.9-1.2 8 2.4 12.4 10.6 13 1.3.3 2.6.4 2.9 2.1-.8 1.8-2.4 2.1-4.1 2.2-1.2 0-2.2-.4-3.1-1.1-5.7-1.7-9.2-5.5-10-11.5-.9-6.5 2.3-10.6 7.5-13.7 5-3 9.6-6.3 10.3-12.8 0-.9.7-1.9-1-2z"/>
  <path fill="#49403C" d="M159.3 147.9c-2.6-14.5-.6-28.7 1.9-43 1.1-2.7.4-5.4 0-8.2.4-2.5 1.2-4.8 3.5-6.2.5-.1 1 .1 1.4.4-1.4 8.3-2.9 16.6-4.3 24.9-1.6 9.7-2.1 19.4-1.8 29.2.4 1.2 1.2 2.5-.7 2.9z"/>
  <path fill="#7D583F" d="M36.8 115c-1.2-9.7-2.5-19.4-3.7-29 .6-.3 1.1-.2 1.6.2 2.2 2.2 2 5.3 2.4 8 .8 6.1 2.3 12.1 1.8 18.3-.4 1.1-.9 2.1-2.1 2.5z"/>
  <path fill="#674D39" d="M167.1 194c.3-8.6-3-16.6-3.9-25 .3-.4.3-1 1-1.1 1.5 6.7 3 13.5 4.5 20.2-1.6 1.6.3 4.2-1.6 5.9z"/>
  <path fill="#835E43" d="M166.1 91c-.4 0-.7-.1-1.1-.1-1.4-3.2 1.6-6.1.6-9.2-.3-2.2-1.4-4.2-.7-6.5-1.3-1.9-2.6-3.8-3.8-5.7 8.1 5.9 9.8 13 5 21.5z"/>
  <path fill="#654F40" d="M126.1 158c-.4-1.3.2-2.9-.8-4.1.8-5.9 1.9-11.8 3.6-17.5.8.6 1.1 1.4 1.3 2.3.5 6-1.6 11.6-2.2 17.4-.1 1-.6 1.9-1.9 1.9z"/>
  <path fill="#724E31" d="M57.4 72.9c2.8.4 4-.1 2.5-3.3-1.4-2.9-3.1-5.8-2.8-9.2 2.6 4.2 4.3 8.8 6 13.4-1.1 1.4-2.7 1.5-4.3 1.8-1.8-.2-3.9-.1-3.7-2.9.8-.3 1.5-.3 2.3.2z"/>
  <path fill="#805937" d="M34 86h-.9C31 79.3 29.9 72.5 32 65.5c.1.4.2.8.2 1.3 1.4 6.3 3.1 12.6 1.8 19.2z"/>
  <path fill="#644833" d="M42.9 181.9c0 .7.1 1.3.1 2-4.5-1.8-9.1-3.5-12-7.7v-2.1c.4-.3.8-.4 1.2-.2 2.9 3.5 7.3 5.1 10.7 8z"/>
  <path fill="#6D513D" d="M133 73.8l-.9-.9c3.8-1.7 7.5-3.3 11.3-5-2.3 3.3-6.3 4-9.4 6-.4.3-.7.3-1-.1z"/>
  <path fill="#865432" d="M94 99c-.1.8-.1 1.5-.2 2.3-4.3-.1-8.6-.3-12.8-.4v-1.7c4.2-2.6 8.6-.3 13-.2z"/>
  <path fill="#876047" d="M159.3 147.9c.3-.9.5-1.9.8-2.8l1.8 11.1c-2.9-2.1-2.3-5.4-2.6-8.3z"/>
  <path fill="#5E4735" d="M164.2 167.8c-.3.4-.6.8-1 1.1-.5-3.5-2.4-6.9-1.1-10.6 1.1 3.1 1.9 6.2 2.1 9.5z"/>
  <path fill="#484442" d="M36.8 115c.3-.7.7-1.3 1-2 1.8 2.5 2.6 5.1.7 8-.2 1.5-.5 2.9-.7 4.4-1.2-3.4-.6-6.9-1-10.4z"/>
  <path fill="#A25C29" d="M129.2 139.1c-.1-.9-.2-1.7-.3-2.6.4-2.1.8-4.2 1.1-6.4 1 0 2 .1 3 .1.1 1.6-1.2 2.8-1.4 4.4-.7 1.5 0 3.9-2.4 4.5z"/>
  <path fill="#494745" d="M59.1 74.8c1.1-1.2 2.6-.6 4-.9 1.4.7 2.9 1.3 4.3 2-.9.1-1.9.2-2.8.4-2.3 1.2-4.2.7-5.5-1.5z"/>
  <path fill="#78553D" d="M131 93.6c-.4-.3-.7-.5-1.1-.8 2.1-1.5 4.3-3.1 7.1-2.8-1.6 1.8-3.9 2.6-6 3.6z"/>
  <path fill="#F47F21" d="M139.1 190.7c-.7-12.7.8-25.4.9-38.1v-5.4c1.3-4-.5-8.2 1-12.2 2.7-2.5 5.3-5 8-7.5 1.2-1.1 2.6-2.3 2.9.6 1.5 16.1 6.4 31.8 5 48.1-.4 4.8.1 9.8-3.4 14.1-2.4 3.1-5.8 3.4-8.9 4.9-2.7-.2-3.9-2.5-5.5-4.5z"/>
  <path fill="#524138" d="M141.1 135c-.7 4 .5 8.2-1 12.2 0-4.6 0-9.1-.1-13.7 0-1.5.6-3.3-1.1-4.5-.7.5-1.3.4-1.9-.1-.8-1.1-2-.8-3.1-1-.1-.3-.1-.8.1-.9 10.6-5.6 14.9-16.7 22-25.3 1.6-2 2.6-4.8 5.8-5 1.9 2.9 1 5.6-.7 8.3v-4c-4.9 5.3-8.2 11-12 16.3-1.2 1.7-2.3 3.8-3.9 5.1-4.4 3.2-4.8 7.7-4.1 12.6z"/>
  <path fill="#D25F27" d="M55.9 116c1.6 12.2 5.1 24 7.6 36 2 9.9 4.3 19.8 5.6 29.8.6 4.4-1.5 6.6-5.3 7.6-5.7 1.5-11.6 3.7-16.7-1.5 7.7-4.4 7-11.4 5.9-18.7-2.8-18.7-5.2-37.5-8.2-56.2-1.3-7.9-3.8-15.5-5.3-23.3-.4-2.2-1.3-4.6.6-6.6C46.3 87.6 53.3 91 60 95c-.2 1.1.1 1.9 1.3 2.2 1.4 11 1.7 22 1 33.1-2.8-4.8-2.6-10.6-5.1-15.5-1.8-1-.9-3.2-2-4.5.5 1.8 1.2 3.7.7 5.7z"/>
  <path fill="#F47F21" d="M40 83.1c.2 7.7 3.2 14.8 4.7 22.2 2.7 13.2 4.4 26.6 6.3 40 1.5 10.6 3 21.2 3.9 31.9.6 7.8-.2 8.3-7.8 10.8-2.6-4.5-2.5-9.6-3.1-14.4-2-17.5-3.7-35-5.4-52.5-.2-2.7-.5-5.3-.7-8-.6-9.1-1.7-18.1-3.8-27-1.3-6.4-2.8-12.7-1.8-19.3 3.1-4.9 6.1.5 9.1.3.8-.1 1.8 1.3 2.7 2 3-.2 5.2 1.9 7.8 2.6 1 .5 2.4.3 3 1.5 1.2 1 2.6 1.7 4.2 1.7 1.8.5 3.7 1 5.5 1.4 8.2 3.2 16.9 3.9 25.5 4.9 1.5.2 3.5-.7 4.1 1.7.5 1.1.2 2.3.2 3.4-.4 6.8-2.7 8.8-9.5 7.9-12.3-1.7-24.7-3.2-36-9-2.4-1.4-4.7-2.9-7.1-4.2-.9-.5-1.9-2.1-2.9-1-1.2 1.1.9 1.9 1.1 3.1z"/>
  <path fill="#D25F27" d="M48.8 85.1c5.4 1.4 10.9 2.5 16.3 4.2 6.9 2.1 14 2.3 21 3.7 3.9.8 7-.4 7-5.3 0-1.6.7-3.2 1-4.9C97 88.2 95.8 93.6 94 99c-4.3 2.9-8.7-.7-13.1.2-11.7-2.4-22.5-6.8-32.1-14.1z"/>
  <path fill="#D15E27" d="M61.3 97.2c-1.5-.1-2.1-.7-1.3-2.2 2.7.9 5.4 1.9 8.2 2.8 1.4 4.9 2.6 9.9 3.4 15 .3 1.9.1 3.6-.5 5.3-1.5 1.5-3.3 2-5.6 2.6-.9-7.1-1.8-14-2.6-21-.1-1.1 0-2.3-1.6-2.5z"/>
  <path fill="#EE7E23" d="M31.7 174.2c-.2-.1-.5-.1-.8-.1-1.5-3.5.5-6.5 1.5-9.5 1.6-4.8 3.8-9.4 7.7-13.8v8c.6 5.1 1.4 10.2-3.6 13.8-1.4 1.1-2.7 2.3-4.8 1.6z"/>
  <path fill="#D06028" d="M31.7 174.2c6.8-3 9.2-8.3 8.4-15.4.9 7.7 1.8 15.4 2.8 23.1-4.7-1.1-8.6-3.4-11.2-7.7z"/>
  <path fill="#EF7F22" d="M71.1 118.1c-1.1-5.8-2.1-11.5-3.3-17.2-.2-1.1-1-2.2.4-3 1.3.3 2.7.4 3.2 2 1.2 4.1 2.5 8.2 3.3 12.4.5 2.6-1.3 4.5-3.6 5.8z"/>
  <path fill="#2E3A49" d="M55.9 116c-.6-2-1.4-4-.6-6.4 1.2 1.7 1.9 3.3 1.9 5.1l-1.3 1.3z"/>
  <path fill="#F47F21" d="M131.9 47c-3-9.4 0-19.2 7.9-25.8 7.9-6.6 18.4-7.8 27.2-3 7.4 5.7 9.8 17.9 5.2 26.1-6.9 12.3-21.4 16.5-33.5 9.7-3-1.6-5-4.2-6.8-7z"/>
  <path fill="#D25F27" d="M131.9 47c3.5 1.2 5.2 4.6 8.4 6.5 11.6 6.7 26.5.3 31.2-10.9 3.6-8.6 1.8-17.1-4.5-24.4 13.7 5.2 18.8 23.9 9.9 36.9-5.7 8.4-14.1 12-24.1 10.8-9.5-1.1-16-6.6-20.2-15.1-.6-1.2-1-2.4-.7-3.8z"/>
  <path fill="#F37F21" d="M164.9 75.1c1.6 1.6.8 4.1 2.1 5.8-5 7.8-11.5 14.5-17.3 21.7-3.9 4.9-8.4 9.3-12.5 14.1-2.3 2.6-5 3.7-8.3 3.6-5.1-.1-6.5-1.8-5.9-7.2 1.5-3.7 4.6-5.5 8.1-6.8.5 1.5-1.1 2.7-.5 4.5 5.3-.5 6.6-5.6 9.8-7.9-2.6 1.4-5 3.8-8.6 2.8 6.2-5.6 13.8-9.5 19.3-16-1.2-1.9-2.8 1.2-3.9-.5.6-1-.3-2.4.9-3.1 3.9-6.3 7.9-12.4 16.8-11zM133 73.8c.3.1.6.2 1 .1 1.2.6 2.4 1.1 3.6 1.8 3.3 2 3.4 4 .3 6.4-9.4 7.3-20.5 9.6-32 10.8-3.4.3-7.9-6.7-6.6-9.8.9-2.2 3.6-.4 4.7-2 9.9-1.1 19.7-3.2 29-7.3z"/>
  <path fill="#554941" d="M148.1 86c-.3 1-.6 2.1-.9 3.1-.3-.4-.7-.8-1-1.2-2.3-1.8 1.5-5.5-2.1-6.9v-.1c.6-2.1-.7-3.8-.9-5.8-.2-2-.4-4.2 1.9-5.1 2.2-.9 4.2-.4 5.8 1.4 1.6 1.8 1.4 3.8-.1 5.3-2.6 2.8-2.8 6-2.7 9.3z"/>
  <path fill="#F47F21" d="M22 40c-4.2-9.1-2.2-19.5 5-27.1 7-7.3 17.8-9.7 27-5.8 8 4.7 8.8 14.2 6.5 23.3-2 7.9-8 13.5-15.7 15.4-8.2 2-16.7 1.9-22.8-5.8z"/>
  <path fill="#D25E27" d="M22 40c5.7 2.8 10.8 6 17.9 5.3 10.5-1.1 19.7-9.8 20.2-20.5.3-6.9-1.6-12.6-6.1-17.7C65.6 10.2 71.9 24 70.6 33c-1.8 12.4-10.4 21.4-22.2 22.9-11.8 1.4-22.3-5-26.4-15.9z"/>
  <path fill="#4F4037" d="M54.8 73.1c-1-.2-2.2.1-3-1-.3-.3-.3-.6-.2-.8.1-.2.3-.3.4-.3 1.6-1.3 1.6-1.3 1.4-6.7 2.3 2.6 2.8 5.8 3.9 8.6-.8.1-1.6.1-2.5.2z"/>
  <path fill="#A15725" d="M52 71c-.1.4-.1.7-.2 1.1-2.8-.6-5.3-1.7-7.8-3.1 3.4-2.2 5.4 1.3 8 2z"/>
  <path fill="#D25F27" d="M137 128.9c.6 0 1.2.1 1.9.1-1.7 19.1-2.1 38.2-2 57.3 0 3.7-1.3 4.4-4.5 3.2-2.3-.9-4.8-1.3-6.5-3.5 6.4-14.8 7-30.4 6.9-46.1 0-2.3-.8-4.2-1.8-6.1-.2-1.8.8-2.9 2.1-3.7 1.2-.3 2.6-.8 3.9-1.2z"/>
  <path fill="#F17E22" d="M130.9 133.9c2.8-.3 3.6 1.6 3.5 3.7-.6 13.9-.2 27.9-4.4 41.4-.8 2.7-1.6 5.4-4.2 7.1-2.1-1-1.7-3-1.7-4.7.1-7.8.7-15.6 1.9-23.3 1.6-6.2 2.3-12.6 3.1-19 1.7-1.4.1-3.9 1.8-5.2z"/>
  <path fill="#D25E27" d="M122.9 113c-.1 2.6.3 5.3 3.4 5.8 3.6.5 6.9.4 9.9-3 9.2-10.2 18-20.7 26.8-31.3 1.1-1.4 2.7-2.5 4-3.7.8 3.6-1 6.7-2 10-1 1.9-2.1 3.9-3.1 5.8-5.8 6.4-10.5 13.5-15.4 20.6-3.3 4.7-7.2 8.5-12.5 10.6-9-.1-13.6-6.4-11.1-14.8z"/>
  <path fill="#F9CCA5" d="M131.7 105.7c4-1.1 7.5-3.3 11.4-5.1-3.1 3.9-5.4 8.4-9.9 10.9-1.3.8-3.1 2.1-4.5.6-1.5-1.6.3-3 1.1-4.3.3-.6.8-1.1 1.2-1.6.2-.2.5-.3.7-.5z"/>
  <path fill="#636363" d="M144 81.1c.9-.3 1-1.9 2.2-1.5 1 .3.8 1.4.7 2.1-.2 2.1-.6 4.2-.9 6.3.1 4.4-3.4 5.8-6.8 8.2.6-5.9 4.6-9.9 4.8-15.1z"/>
  <path fill="#FCD3B7" d="M147 138.6c1.8 3.2 2.5 6 2.7 8.9.6 8.6.2 17.3 1.3 25.9.3 2.4.4 6.1-2.4 6.2-2.9.1-2.9-3.6-2.7-6 .4-8.8-.4-17.6-.9-26.4-.2-2.8.2-5.4 2-8.6z"/>
  <path fill="#FBD4B8" d="M44 126c1.7 15 6.6 29.5 6.3 44.8 0 1.9.5 3.9-1.8 6.7-2.9-16.6-5-32.3-5.6-48.2-.1-1.3-1.4-3 1.1-3.3z"/>
  <path fill="#FCD3B5" d="M61.8 82.1c-8.5-.9-16.6-3-23.8-7.5-1-.6-2.8-1.3-2.2-2.9.7-1.9 2.7-1.1 3.9-.6 8.5 3.3 16.9 6.7 25.3 10-.5 2.4-2 1.2-3.2 1z"/>
  <path fill="#FBCDA8" d="M61.8 82.1c1.1-.2 2.3.2 3.1-.9 6.4 1.6 13 2.2 19.5 3.1 1.5.2 4.3.2 3.8 2.6-.4 1.8-2.8 1.1-4.4.8-7.3-1.9-14.6-3.8-22-5.6z"/>
  <path fill="#FCC28F" d="M44 126c-1.3.7-.8 2.1-1.1 3.2-.7-5.2-1.4-10.3-2.1-15.5 1.8 4 3.3 8 3.2 12.3z"/>
  <path fill="#FBCEA6" d="M35.4 166c-.7-2-.2-3.7 1.5-4.7.8-.5 1.7.1 1.7 1.1 0 1.9-.8 3.4-3.2 3.6z"/>
  <path fill="#FCD2B3" d="M149.7 21c4.8 0 8.4 3.2 8.3 7.4-.1 5.2-7.5 11.9-13 11.8-3.8-.1-6.8-3.5-6.8-7.8-.1-6.1 5.4-11.4 11.5-11.4z"/>
  <path fill="#FBCDA7" d="M159.1 78.1c1.8-.2 2.7.8 2.7 2.3 0 1.4-.8 2.5-2.4 2.5-1.5 0-2.7-.8-2.7-2.3 0-1.5 1.1-2.3 2.4-2.5z"/>
  <path fill="#FAC89E" d="M125.6 79.9c-5.2 4.5-10.6 4.5-15.4 5.9-1 .3-2.1-.2-2.1-1.5 0-1.4 1.1-2.1 2.3-2.2 4.6-.7 9.1-1.3 15.2-2.2z"/>
  <path fill="#676768" d="M147.2 71.1c1.5.2 3.2.9 3 2.9-.1 1.6-1.1 3.3-2.9 3.5-1.6.1-2.8-1.2-2.8-2.8.1-1.7.2-3.5 2.7-3.6z"/>
  <path fill="#FCD2B3" d="M46.2 19.2c-.5 5.3-4.5 8.4-9.2 10.8-2.7 1.4-5.4 1.4-7.8-.9-4.2-3.8-3.8-9.8 1.1-14.5 4.1-3.9 11.1-4 14.4-.2.9 1.2 1.5 2.6 1.5 4.8z"/>
  <path fill="#FBCDA6" d="M128.1 174.1c-1.8-9.8.6-19.2 3.1-28.5 0 9.6.3 19.2-3.1 28.5z"/>
</svg>
