<?xml version="1.0" encoding="utf-8"?>
<!-- Generator: Adobe Illustrator 21.1.0, SVG Export Plug-In . SVG Version: 6.00 Build 0)  -->
<svg version="1.1" xmlns="http://www.w3.org/2000/svg" xmlns:xlink="http://www.w3.org/1999/xlink" x="0px" y="0px"
	 viewBox="0 0 93 107.2" enable-background="new 0 0 93 107.2" xml:space="preserve">
<g id="Layer_1">
</g>
<g id="Layer_2">
</g>
<g id="Layer_3">
	<g>
		<path display="none" fill="#010101" d="M387.4,58c-1,0-1.7-0.3-2-0.9c-0.3-0.6-0.5-1.8-0.5-3.6V48h5.9v-8.9h-5.9V27.7l-14.7,7v4.4
			h-3.6V48h3.6v4.8c0,3.7,0.1,6.2,0.2,7.5c0.1,0.7,0.3,1.4,0.5,2c0.2,0.6,0.5,1.3,1,2c0.8,1.2,2,2.2,3.7,3c1.6,0.7,3.5,1.1,5.7,1.1
			c1.8,0,3.6-0.3,5.5-0.8c1.8-0.5,3.2-1.1,4.2-1.7v-8.7C389.5,57.7,388.4,58,387.4,58z M358,58.5h-4.3c0-1.7,0.3-3.1,0.9-4.2
			c0.5-1,1.6-1.8,3.1-2.5c1.5-0.6,3.7-0.9,6.7-0.9c0.5,0,0.9,0,1.2,0V38.5c-2.5,0-4.5,0.2-5.8,0.6c-1.4,0.4-2.7,1.2-4,2.5
			c-1.4,1.3-2.4,2.8-3.1,4.6v-7.1h-17.6V48h3.9v10.5h-3.9v8.9H358V58.5z M296,64c3.6,2.9,8.5,4.3,14.9,4.3c5.9,0,10.6-1.4,14.2-4.3
			c3.6-2.9,5.4-6.5,5.4-10.8c0-4.5-1.9-8.1-5.7-10.8c-3.8-2.8-8.7-4.2-14.7-4.2c-6,0-10.7,1.4-14.2,4.3c-3.5,2.9-5.3,6.4-5.3,10.6
			C290.7,57.5,292.5,61.1,296,64z M307,48.2c0.9-1.1,2.2-1.7,3.7-1.7c1.6,0,2.8,0.6,3.6,1.7c0.8,1.2,1.3,2.8,1.3,4.9
			c0,4.6-1.7,6.9-5.2,6.9c-3.2,0-4.9-2.3-4.9-6.8C305.6,51,306.1,49.4,307,48.2z M245.6,48v23.6h-3.5v8.9h22v-8.9h-3.8v-5.9
			c2.5,1.6,5.5,2.3,9,2.3c4.7,0,8.6-1.3,11.6-3.9c2.9-2.6,4.4-6.1,4.4-10.6c0-4.5-1.5-8.1-4.5-10.8c-3-2.7-6.7-4.1-10.9-4.1
			c-3.3,0-6.5,0.8-9.6,2.4v-1.9h-18.2V48H245.6z M261.8,48.5c1-1,2.2-1.5,3.6-1.5c3.2,0,4.8,2.1,4.8,6.2c0,4.3-1.7,6.4-5,6.4
			c-1.4,0-2.6-0.5-3.5-1.6c-0.9-1-1.4-2.6-1.4-4.6C260.3,51.2,260.8,49.5,261.8,48.5z M197.5,48v23.6h-3.5v8.9h22v-8.9h-3.8v-5.9
			c2.5,1.6,5.5,2.3,9,2.3c4.7,0,8.6-1.3,11.6-3.9c2.9-2.6,4.4-6.1,4.4-10.6c0-4.5-1.5-8.1-4.5-10.8c-3-2.7-6.7-4.1-10.9-4.1
			c-3.3,0-6.5,0.8-9.6,2.4v-1.9h-18.2V48H197.5z M213.7,48.5c1-1,2.2-1.5,3.6-1.5c3.2,0,4.8,2.1,4.8,6.2c0,4.3-1.7,6.4-5,6.4
			c-1.4,0-2.6-0.5-3.5-1.6c-0.9-1-1.4-2.6-1.4-4.6C212.2,51.2,212.7,49.5,213.7,48.5z M149.2,54.7c0,5.1,1.1,8.6,3.2,10.5
			c2.1,1.9,4.6,2.8,7.5,2.8c4.1,0,8-1.4,11.9-4.1v3.6h18.2v-8.9h-3.4V39.1h-18.6V48h3.9v9.1c-1.4,0.9-2.9,1.3-4.6,1.3
			c-1.3,0-2.2-0.4-2.6-1.2c-0.4-0.8-0.6-2.3-0.6-4.6V39.1h-18.2V48h3.4V54.7z M118.8,64.8c2.9,2.1,6.2,3.2,9.8,3.2
			c3.9,0,7.1-1.2,9.6-3.6c2.5-2.4,3.8-5.3,3.8-8.7c0-2.2-0.5-4.3-1.6-6.2c-0.5-0.9-1.1-1.7-1.8-2.5c-0.7-0.8-1.4-1.4-2.1-1.9
			c-1.3-0.9-4-2.4-8-4.4c-3-1.5-4.8-2.4-5.3-2.8c-0.6-0.4-0.8-1-0.8-1.8c0-1.7,1-2.5,3-2.5c2.8,0,4.8,1.6,5.9,4.8h9.1V26.7h-9.2v2.5
			c-2.5-2-5.5-3-9.1-3c-3.6,0-6.6,1.1-9,3.2c-2.5,2.1-3.7,5.1-3.7,8.9c0,2.1,0.5,4,1.6,5.8c1,1.8,2.3,3.1,3.8,4.1
			c1.6,1.1,4,2.4,7.3,3.9c2.6,1.2,4.4,2.1,5.2,2.8c0.8,0.6,1.1,1.4,1.1,2.3c0,1.8-1.1,2.6-3.3,2.6c-3,0-5.1-1.8-6.2-5.3h-9.2v13.1
			h9.2V64.8z"/>
		<path display="none" fill="#F57F20" d="M544.3,55.1L556,67.5h10.6v-8.9h-2.3l-6.4-6.6l5.3-5.2h3.3v-7.7h-18.2v7h5.2L544.3,55.1
			V26.7h-18.4v8.9h3.7v22.9h-3.6v8.9h18.4V55.1z M500.2,66.1c2.5,1.3,5.5,1.9,9,1.9c3.6,0,6.5-0.8,9-2.3c2.4-1.6,3.7-4,3.7-7.3
			c0-1.8-0.5-3.3-1.5-4.6c-1-1.2-2.5-2.3-4.5-3c-2-0.8-4.9-1.5-8.5-2.3c-3.2-0.7-5.1-1.1-5.6-1.3c-0.7-0.2-1-0.5-1-1.1
			c0-1.2,1.1-1.8,3.4-1.8c2.9,0,5.3,1,7.4,3h8.3v-8.3h-9v1.5c-2.4-1.3-5.3-2-8.8-2c-3.4,0-6.2,0.7-8.4,2.2c-2.2,1.5-3.3,3.8-3.3,6.9
			c0,1.4,0.2,2.6,0.7,3.5c0.4,0.9,1.3,1.8,2.5,2.7c1.2,0.9,2.9,1.7,5,2.3c2.5,0.7,4.7,1.4,6.7,1.9c2.5,0.6,4.1,1.1,4.7,1.4
			c0.6,0.3,0.8,0.7,0.8,1.3c0,1.1-1.3,1.6-3.9,1.6c-2.6,0-5-1.2-7.2-3.5h-8.5v9h9.1V66.1z M467.7,61.7c-3.4,0-5.1-2.3-5.2-6.9h22.4
			c-0.2-5.5-2-9.7-5.3-12.4c-3.4-2.7-7.8-4.1-13.1-4.1c-5.6,0-10,1.4-13.3,4.3c-3.3,2.9-5,6.5-5,10.8c0,4.4,1.7,8,5,10.8
			c3.3,2.8,8.3,4.1,14.9,4.1c3.9,0,7.3-0.8,10.2-2.3c1.4-0.7,2.6-1.6,3.6-2.6c1-1,1.7-2.1,2.3-3.4L472,58.5
			C471.2,60.6,469.7,61.7,467.7,61.7z M462.6,50.5c0-1.6,0.4-3,1.1-4.1c0.7-1.1,1.7-1.6,3-1.6c1.3,0,2.3,0.5,3.1,1.5
			c0.8,1,1.2,2.3,1.2,3.8c0,0.1,0,0.4-0.1,1h-8.3C462.7,50.9,462.6,50.7,462.6,50.5z M427.4,66.8c2.7-0.5,5.1-1.5,7.3-3
			c2.3-1.5,4.2-3.8,5.7-6.7c1.5-2.9,2.3-6.1,2.3-9.7c0-1.8-0.2-3.4-0.6-5c-0.4-1.6-0.9-3.1-1.6-4.5c-1.4-2.9-3.4-5.3-5.9-7
			c-2.5-1.7-5.2-2.8-8-3.4c-2.8-0.5-6.4-0.8-10.9-0.8h-19.5v9.8h3.2v21.2h-3.2v9.8h19C420.7,67.5,424.8,67.3,427.4,66.8z
			 M415.7,36.5c3.1,0,5.3,0.5,6.5,1.4c1.2,1,2.1,2.3,2.6,4.1c0.5,1.8,0.7,3.5,0.7,5.3c0,3-0.5,5.5-1.6,7.4c-1.1,2-3.5,3-7.2,3h-1.5
			V36.5H415.7z"/>
		<polygon fill="#FFFFFF" points="5,77.4 5.1,29.6 46.6,5.8 88,29.8 87.9,77.6 46.4,101.4 		"/>
		<path fill="#F57F20" d="M46.6,11.5L83,32.7l-0.1,42.1L46.4,95.7L10,74.6l0.1-42.1L46.6,11.5 M46.6,0L0.1,26.7L0,80.3l46.4,26.9
			l46.5-26.7L93,26.9L46.6,0z"/>
		<rect x="36.4" y="26.8" fill="#F57F20" width="18" height="53.7"/>
		<rect x="19.6" y="44.8" fill="#F57F20" width="53.7" height="18"/>
	</g>
</g>
<g id="Layer_4" display="none">
	<g display="inline">
		<path fill="#F57F21" d="M49.7,138.5c-1.8,1.8-4.8,1.8-6.7,0l-51-51c-1.8-1.8-1.8-4.8,0-6.7l51-51c1.8-1.8,4.8-1.8,6.7,0l51,51
			c1.8,1.8,1.8,4.8,0,6.7L49.7,138.5z"/>
	</g>
	<rect x="37.5" y="57.8" display="inline" fill="#FFFFFF" width="18" height="53.7"/>
	<rect x="19.6" y="75.8" display="inline" fill="#FFFFFF" width="53.7" height="18"/>
</g>
<g id="Layer_5" display="none">
	<g display="inline">
		<polygon fill="#F57F20" points="92.8,111.7 46.4,138.4 0,111.5 0.1,57.9 46.6,31.2 93,58.1 		"/>
	</g>
	<rect x="37.5" y="57.8" display="inline" fill="#FFFFFF" width="18" height="53.7"/>
	<rect x="19.6" y="75.8" display="inline" fill="#FFFFFF" width="53.7" height="18"/>
</g>
</svg>
