<svg xmlns="http://www.w3.org/2000/svg" viewBox="0 0 315.8 59.7"><path fill="#010201" d="M215.9 32.3c-.6 0-.9-.2-1.1-.5-.2-.3-.3-1-.3-2v-3.1h3.3v-5h-3.3v-6.3l-8.2 3.9v2.4h-2v5h2v2.7c0 2.1 0 3.4.1 4.2.1.4.1.8.3 1.1.1.3.3.7.6 1.1.5.7 1.1 1.3 2 1.7.9.4 1.9.6 3.2.6 1 0 2-.1 3.1-.4 1-.3 1.8-.6 2.3-.9v-4.9c-.8.3-1.4.4-2 .4m-16.4.3h-2.4c0-1 .2-1.7.5-2.3.3-.6.9-1 1.7-1.4.8-.3 2.1-.5 3.7-.5h.7v-7c-1.4 0-2.5.1-3.2.3-.8.2-1.5.7-2.3 1.4-.8.7-1.3 1.6-1.7 2.6v-4h-9.8v5h2.2v5.9h-2.2v5h12.8v-5zM165 35.7c2 1.6 4.7 2.4 8.3 2.4 3.3 0 5.9-.8 7.9-2.4 2-1.6 3-3.6 3-6 0-2.5-1.1-4.5-3.2-6s-4.8-2.3-8.2-2.3c-3.3 0-6 .8-7.9 2.4-2 1.6-2.9 3.6-2.9 5.9 0 2.4 1 4.4 3 6m6.1-8.8c.5-.6 1.2-.9 2.1-.9.9 0 1.5.3 2 1 .5.6.7 1.5.7 2.7 0 2.5-1 3.8-2.9 3.8-1.8 0-2.7-1.3-2.7-3.8 0-1.3.3-2.2.8-2.8m-34.2-.1v13.1H135v5h12.3v-5h-2.1v-3.3c1.4.9 3.1 1.3 5 1.3 2.6 0 4.8-.7 6.4-2.2 1.6-1.4 2.5-3.4 2.5-5.9 0-2.5-.8-4.5-2.5-6s-3.7-2.3-6.1-2.3c-1.8 0-3.6.5-5.4 1.4v-1.1H135v5h1.9zm9 .2c.5-.6 1.2-.9 2-.9 1.8 0 2.7 1.2 2.7 3.5 0 2.4-.9 3.6-2.8 3.6-.8 0-1.4-.3-1.9-.9-.5-.6-.8-1.4-.8-2.6 0-1.2.2-2.1.8-2.7m-35.8-.2v13.1h-1.9v5h12.2v-5h-2.1v-3.3c1.4.9 3.1 1.3 5 1.3 2.6 0 4.8-.7 6.5-2.2 1.6-1.4 2.5-3.4 2.5-5.9 0-2.5-.8-4.5-2.5-6s-3.7-2.3-6.1-2.3c-1.8 0-3.6.5-5.4 1.4v-1.1h-10.1v5h1.9zm9 .2c.5-.6 1.2-.9 2-.9 1.8 0 2.7 1.2 2.7 3.5 0 2.4-.9 3.6-2.8 3.6-.8 0-1.4-.3-1.9-.9-.5-.6-.8-1.4-.8-2.6 0-1.2.2-2.1.8-2.7m-36 3.5c0 2.9.6 4.8 1.8 5.8 1.2 1 2.6 1.6 4.2 1.6 2.3 0 4.5-.8 6.6-2.3v2h10.1v-5h-1.9V21.8H93.6v5h2.2v5.1c-.8.5-1.6.7-2.5.7-.8 0-1.2-.2-1.5-.7-.2-.4-.4-1.3-.4-2.6v-7.5H81.2v5h1.9v3.7zm-16.9 5.6c1.6 1.2 3.4 1.8 5.4 1.8 2.2 0 3.9-.7 5.4-2 1.4-1.3 2.1-2.9 2.1-4.8 0-1.2-.3-2.4-.9-3.5-.3-.5-.6-.9-1-1.4-.4-.5-.8-.8-1.2-1.1-.8-.5-2.2-1.3-4.5-2.4-1.7-.8-2.7-1.3-3-1.6-.3-.2-.5-.6-.5-1 0-.9.6-1.4 1.7-1.4 1.6 0 2.7.9 3.3 2.7h5.1v-6.5H73v1.4c-1.4-1.1-3.1-1.7-5.1-1.7-2 0-3.7.6-5 1.8-1.4 1.2-2.1 2.8-2.1 4.9 0 1.2.3 2.2.9 3.2.6 1 1.3 1.7 2.1 2.3.9.6 2.2 1.3 4.1 2.2 1.5.7 2.4 1.2 2.9 1.5.4.3.6.8.6 1.3 0 1-.6 1.5-1.8 1.5-1.7 0-2.8-1-3.4-3h-5.1v7.3h5.1v-1.5z"/><path fill="#F57F20" d="M303.3 30.7l6.5 6.9h5.9v-5h-1.3l-3.6-3.7 3-2.9h1.8v-4.3h-10.1v3.9h2.9l-5.1 5.1V14.9H293v5h2.1v12.8h-2v5h10.2v-7zm-24.5 6.1c1.4.7 3 1.1 5 1.1s3.6-.4 5-1.3 2-2.2 2-4c0-1-.3-1.9-.8-2.6-.6-.7-1.4-1.3-2.5-1.7-1.1-.4-2.7-.9-4.7-1.3-1.8-.4-2.8-.6-3.1-.7-.4-.1-.6-.3-.6-.6 0-.7.6-1 1.9-1 1.6 0 3 .6 4.1 1.7h4.6v-4.6h-5v.8c-1.3-.7-3-1.1-4.9-1.1-1.9 0-3.5.4-4.7 1.2-1.2.8-1.9 2.1-1.9 3.9 0 .8.1 1.4.4 1.9.2.5.7 1 1.4 1.5s1.6.9 2.8 1.3c1.4.4 2.6.8 3.8 1.1 1.4.3 2.3.6 2.6.8.3.2.5.4.5.7 0 .6-.7.9-2.2.9-1.4 0-2.8-.6-4-1.9h-4.8v5h5.1v-1.1zm-18.2-2.4c-1.9 0-2.8-1.3-2.9-3.9h12.5c-.1-3.1-1.1-5.4-3-6.9s-4.3-2.3-7.3-2.3c-3.1 0-5.6.8-7.4 2.4-1.8 1.6-2.8 3.6-2.8 6 0 2.5.9 4.5 2.8 6s4.6 2.3 8.3 2.3c2.2 0 4.1-.4 5.7-1.3.8-.4 1.4-.9 2-1.5.5-.6 1-1.2 1.3-1.9l-6.8-.8c-.4 1.3-1.2 1.9-2.4 1.9m-2.8-6.3c0-.9.2-1.7.6-2.3.4-.6 1-.9 1.7-.9s1.3.3 1.7.8c.4.6.7 1.3.7 2.1v.6h-4.6c-.1 0-.1-.2-.1-.3m-19.6 9.1c1.5-.3 2.8-.8 4.1-1.7 1.3-.9 2.3-2.1 3.2-3.7.8-1.6 1.3-3.4 1.3-5.4 0-1-.1-1.9-.3-2.8-.2-.9-.5-1.7-.9-2.5-.8-1.6-1.9-2.9-3.3-3.9-1.4-.9-2.9-1.6-4.5-1.9-1.6-.3-3.6-.5-6.1-.5h-10.9v5.4h1.8V32h-1.8v5.4h10.6c3.1.2 5.3.1 6.8-.2m-6.5-16.9c1.7 0 2.9.3 3.6.8.7.5 1.2 1.3 1.4 2.3.3 1 .4 2 .4 3 0 1.7-.3 3-.9 4.1-.6 1.1-2 1.6-4 1.6h-.8V20.3h.3z"/><path fill="#FFF" d="M2.8 43.2V16.5L26 3.2l23 13.4v26.7L25.8 56.5"/><path fill="#F57F20" d="M26 6.4l20.3 11.8-.1 23.4-20.4 11.7L5.6 41.6l.1-23.4L26 6.4zM26 0L.1 14.9 0 44.8l25.8 15 25.9-14.9.1-29.9L26 0z"/><path fill="#F57F20" d="M20.3 14.9h10v29.9h-10z"/><path fill="#F57F20" d="M10.9 25h29.9v10H10.9z"/></svg>