<?xml version="1.0" encoding="utf-8"?>
<!-- Generator: Adobe Illustrator 21.1.0, SVG Export Plug-In . SVG Version: 6.00 Build 0)  -->
<svg version="1.1" id="Layer_1" xmlns="http://www.w3.org/2000/svg" xmlns:xlink="http://www.w3.org/1999/xlink" x="0px" y="0px"
	 viewBox="0 0 151.5 124.8" style="enable-background:new 0 0 151.5 124.8;" xml:space="preserve">
<style type="text/css">
	.st0{display:none;fill:#010101;}
	.st1{display:none;fill:#F57F20;}
	.st2{fill:#FFFFFF;}
	.st3{fill:#F57F20;}
	.st4{display:none;}
	.st5{display:inline;}
	.st6{fill:#F57F21;}
	.st7{display:inline;fill:#FFFFFF;}
	.st8{fill:#010201;}
</style>
<g id="Layer_1_1_">
</g>
<g id="Layer_2">
</g>
<g id="Layer_3">
	<g>
		<path class="st0" d="M416.4,58c-1,0-1.7-0.3-2-0.9c-0.3-0.6-0.5-1.8-0.5-3.6V48h5.9v-8.9h-5.9V27.7l-14.7,7v4.4h-3.6V48h3.6v4.8
			c0,3.7,0.1,6.2,0.2,7.5c0.1,0.7,0.3,1.4,0.5,2s0.5,1.3,1,2c0.8,1.2,2,2.2,3.7,3c1.6,0.7,3.5,1.1,5.7,1.1c1.8,0,3.6-0.3,5.5-0.8
			c1.8-0.5,3.2-1.1,4.2-1.7v-8.7C418.5,57.7,417.4,58,416.4,58z M387,58.5h-4.3c0-1.7,0.3-3.1,0.9-4.2c0.5-1,1.6-1.8,3.1-2.5
			c1.5-0.6,3.7-0.9,6.7-0.9c0.5,0,0.9,0,1.2,0V38.5c-2.5,0-4.5,0.2-5.8,0.6c-1.4,0.4-2.7,1.2-4,2.5c-1.4,1.3-2.4,2.8-3.1,4.6v-7.1
			h-17.6V48h3.9v10.5h-3.9v8.9H387V58.5z M325,64c3.6,2.9,8.5,4.3,14.9,4.3c5.9,0,10.6-1.4,14.2-4.3s5.4-6.5,5.4-10.8
			c0-4.5-1.9-8.1-5.7-10.8c-3.8-2.8-8.7-4.2-14.7-4.2s-10.7,1.4-14.2,4.3c-3.5,2.9-5.3,6.4-5.3,10.6C319.7,57.5,321.5,61.1,325,64z
			 M336,48.2c0.9-1.1,2.2-1.7,3.7-1.7c1.6,0,2.8,0.6,3.6,1.7c0.8,1.2,1.3,2.8,1.3,4.9c0,4.6-1.7,6.9-5.2,6.9c-3.2,0-4.9-2.3-4.9-6.8
			C334.6,51,335.1,49.4,336,48.2z M274.6,48v23.6h-3.5v8.9h22v-8.9h-3.8v-5.9c2.5,1.6,5.5,2.3,9,2.3c4.7,0,8.6-1.3,11.6-3.9
			c2.9-2.6,4.4-6.1,4.4-10.6s-1.5-8.1-4.5-10.8s-6.7-4.1-10.9-4.1c-3.3,0-6.5,0.8-9.6,2.4v-1.9h-18.2V48H274.6z M290.8,48.5
			c1-1,2.2-1.5,3.6-1.5c3.2,0,4.8,2.1,4.8,6.2c0,4.3-1.7,6.4-5,6.4c-1.4,0-2.6-0.5-3.5-1.6c-0.9-1-1.4-2.6-1.4-4.6
			C289.3,51.2,289.8,49.5,290.8,48.5z M226.5,48v23.6H223v8.9h22v-8.9h-3.8v-5.9c2.5,1.6,5.5,2.3,9,2.3c4.7,0,8.6-1.3,11.6-3.9
			c2.9-2.6,4.4-6.1,4.4-10.6s-1.5-8.1-4.5-10.8s-6.7-4.1-10.9-4.1c-3.3,0-6.5,0.8-9.6,2.4v-1.9H223V48H226.5z M242.7,48.5
			c1-1,2.2-1.5,3.6-1.5c3.2,0,4.8,2.1,4.8,6.2c0,4.3-1.7,6.4-5,6.4c-1.4,0-2.6-0.5-3.5-1.6c-0.9-1-1.4-2.6-1.4-4.6
			C241.2,51.2,241.7,49.5,242.7,48.5z M178.2,54.7c0,5.1,1.1,8.6,3.2,10.5c2.1,1.9,4.6,2.8,7.5,2.8c4.1,0,8-1.4,11.9-4.1v3.6H219
			v-8.9h-3.4V39.1H197V48h3.9v9.1c-1.4,0.9-2.9,1.3-4.6,1.3c-1.3,0-2.2-0.4-2.6-1.2c-0.4-0.8-0.6-2.3-0.6-4.6V39.1h-18.2V48h3.4
			L178.2,54.7L178.2,54.7z M147.8,64.8c2.9,2.1,6.2,3.2,9.8,3.2c3.9,0,7.1-1.2,9.6-3.6s3.8-5.3,3.8-8.7c0-2.2-0.5-4.3-1.6-6.2
			c-0.5-0.9-1.1-1.7-1.8-2.5s-1.4-1.4-2.1-1.9c-1.3-0.9-4-2.4-8-4.4c-3-1.5-4.8-2.4-5.3-2.8c-0.6-0.4-0.8-1-0.8-1.8
			c0-1.7,1-2.5,3-2.5c2.8,0,4.8,1.6,5.9,4.8h9.1V26.7h-9.2v2.5c-2.5-2-5.5-3-9.1-3c-3.6,0-6.6,1.1-9,3.2c-2.5,2.1-3.7,5.1-3.7,8.9
			c0,2.1,0.5,4,1.6,5.8c1,1.8,2.3,3.1,3.8,4.1c1.6,1.1,4,2.4,7.3,3.9c2.6,1.2,4.4,2.1,5.2,2.8c0.8,0.6,1.1,1.4,1.1,2.3
			c0,1.8-1.1,2.6-3.3,2.6c-3,0-5.1-1.8-6.2-5.3h-9.2v13.1h9.2v-2.8H147.8z"/>
		<path class="st1" d="M573.3,55.1L585,67.5h10.6v-8.9h-2.3l-6.4-6.6l5.3-5.2h3.3v-7.7h-18.2v7h5.2L573.3,55.1V26.7h-18.4v8.9h3.7
			v22.9H555v8.9h18.4V55.1H573.3z M529.2,66.1c2.5,1.3,5.5,1.9,9,1.9c3.6,0,6.5-0.8,9-2.3c2.4-1.6,3.7-4,3.7-7.3
			c0-1.8-0.5-3.3-1.5-4.6c-1-1.2-2.5-2.3-4.5-3c-2-0.8-4.9-1.5-8.5-2.3c-3.2-0.7-5.1-1.1-5.6-1.3c-0.7-0.2-1-0.5-1-1.1
			c0-1.2,1.1-1.8,3.4-1.8c2.9,0,5.3,1,7.4,3h8.3V39h-9v1.5c-2.4-1.3-5.3-2-8.8-2c-3.4,0-6.2,0.7-8.4,2.2c-2.2,1.5-3.3,3.8-3.3,6.9
			c0,1.4,0.2,2.6,0.7,3.5c0.4,0.9,1.3,1.8,2.5,2.7c1.2,0.9,2.9,1.7,5,2.3c2.5,0.7,4.7,1.4,6.7,1.9c2.5,0.6,4.1,1.1,4.7,1.4
			c0.6,0.3,0.8,0.7,0.8,1.3c0,1.1-1.3,1.6-3.9,1.6s-5-1.2-7.2-3.5h-8.5v9h9.1v-1.7H529.2z M496.7,61.7c-3.4,0-5.1-2.3-5.2-6.9h22.4
			c-0.2-5.5-2-9.7-5.3-12.4c-3.4-2.7-7.8-4.1-13.1-4.1c-5.6,0-10,1.4-13.3,4.3c-3.3,2.9-5,6.5-5,10.8c0,4.4,1.7,8,5,10.8
			s8.3,4.1,14.9,4.1c3.9,0,7.3-0.8,10.2-2.3c1.4-0.7,2.6-1.6,3.6-2.6s1.7-2.1,2.3-3.4L501,58.5C500.2,60.6,498.7,61.7,496.7,61.7z
			 M491.6,50.5c0-1.6,0.4-3,1.1-4.1s1.7-1.6,3-1.6s2.3,0.5,3.1,1.5c0.8,1,1.2,2.3,1.2,3.8c0,0.1,0,0.4-0.1,1h-8.3
			C491.7,50.9,491.6,50.7,491.6,50.5z M456.4,66.8c2.7-0.5,5.1-1.5,7.3-3c2.3-1.5,4.2-3.8,5.7-6.7s2.3-6.1,2.3-9.7
			c0-1.8-0.2-3.4-0.6-5s-0.9-3.1-1.6-4.5c-1.4-2.9-3.4-5.3-5.9-7s-5.2-2.8-8-3.4c-2.8-0.5-6.4-0.8-10.9-0.8h-19.5v9.8h3.2v21.2h-3.2
			v9.8h19C449.7,67.5,453.8,67.3,456.4,66.8z M444.7,36.5c3.1,0,5.3,0.5,6.5,1.4c1.2,1,2.1,2.3,2.6,4.1s0.7,3.5,0.7,5.3
			c0,3-0.5,5.5-1.6,7.4c-1.1,2-3.5,3-7.2,3h-1.5V36.5H444.7z"/>
		<polygon class="st2" points="34,77.4 34.1,29.6 75.6,5.8 117,29.8 116.9,77.6 75.4,101.4 		"/>
		<path class="st3" d="M75.6,11.5L112,32.7l-0.1,42.1L75.4,95.7L39,74.6l0.1-42.1L75.6,11.5 M75.6,0L29.1,26.7L29,80.3l46.4,26.9
			l46.5-26.7l0.1-53.6L75.6,0z"/>
		<rect x="65.4" y="26.8" class="st3" width="18" height="53.7"/>
		<rect x="48.6" y="44.8" class="st3" width="53.7" height="18"/>
	</g>
</g>
<g id="Layer_4" class="st4">
	<g class="st5">
		<path class="st6" d="M78.7,138.5c-1.8,1.8-4.8,1.8-6.7,0l-51-51c-1.8-1.8-1.8-4.8,0-6.7l51-51c1.8-1.8,4.8-1.8,6.7,0l51,51
			c1.8,1.8,1.8,4.8,0,6.7L78.7,138.5z"/>
	</g>
	<rect x="66.5" y="57.8" class="st7" width="18" height="53.7"/>
	<rect x="48.6" y="75.8" class="st7" width="53.7" height="18"/>
</g>
<g id="Layer_5" class="st4">
	<g class="st5">
		<polygon class="st3" points="121.8,111.7 75.4,138.4 29,111.5 29.1,57.9 75.6,31.2 122,58.1 		"/>
	</g>
	<rect x="66.5" y="57.8" class="st7" width="18" height="53.7"/>
	<rect x="48.6" y="75.8" class="st7" width="53.7" height="18"/>
</g>
<path class="st8" d="M91.6,116.4c-0.3,0-0.5-0.1-0.6-0.3c-0.1-0.2-0.2-0.6-0.2-1.2v-1.8h1.9v-2.9h-1.9v-3.7l-4.8,2.3v1.4h-1.2v2.9
	H86v1.6c0,1.2,0,2,0.1,2.4c0.1,0.2,0.1,0.5,0.2,0.6c0.1,0.2,0.2,0.4,0.3,0.6c0.3,0.4,0.6,0.8,1.2,1c0.5,0.2,1.1,0.3,1.9,0.3
	c0.6,0,1.2-0.1,1.8-0.2c0.6-0.2,1-0.3,1.3-0.5v-2.9C92.3,116.3,91.9,116.4,91.6,116.4 M82,116.6h-1.4c0-0.6,0.1-1,0.3-1.3
	c0.2-0.3,0.5-0.6,1-0.8c0.5-0.2,1.2-0.3,2.2-0.3h0.4v-4.1c-0.8,0-1.5,0.1-1.9,0.2c-0.5,0.1-0.9,0.4-1.3,0.8c-0.5,0.4-0.8,0.9-1,1.5
	v-2.3h-5.7v2.9h1.3v3.4h-1.3v2.9H82V116.6z M61.9,118.4c1.2,0.9,2.7,1.4,4.8,1.4c1.9,0,3.4-0.5,4.6-1.4s1.7-2.1,1.7-3.5
	c0-1.5-0.6-2.6-1.9-3.5s-2.8-1.3-4.8-1.3c-1.9,0-3.5,0.5-4.6,1.4c-1.2,0.9-1.7,2.1-1.7,3.4C60.2,116.3,60.8,117.4,61.9,118.4
	 M65.5,113.3c0.3-0.3,0.7-0.5,1.2-0.5c0.5,0,0.9,0.2,1.2,0.6c0.3,0.3,0.4,0.9,0.4,1.6c0,1.5-0.6,2.2-1.7,2.2c-1,0-1.6-0.8-1.6-2.2
	C65,114.1,65.2,113.6,65.5,113.3 M45.6,113.2v7.6h-1.1v2.9h7.2v-2.9h-1.2v-1.9c0.8,0.5,1.8,0.8,2.9,0.8c1.5,0,2.8-0.4,3.7-1.3
	c0.9-0.8,1.5-2,1.5-3.4s-0.5-2.6-1.5-3.5s-2.2-1.3-3.5-1.3c-1,0-2.1,0.3-3.1,0.8v-0.6h-5.9v2.9H45.6L45.6,113.2z M50.8,113.3
	c0.3-0.3,0.7-0.5,1.2-0.5c1,0,1.6,0.7,1.6,2c0,1.4-0.5,2.1-1.6,2.1c-0.5,0-0.8-0.2-1.1-0.5c-0.3-0.3-0.5-0.8-0.5-1.5
	S50.5,113.7,50.8,113.3 M30,113.2v7.6h-1.1v2.9H36v-2.9h-1.2v-1.9c0.8,0.5,1.8,0.8,2.9,0.8c1.5,0,2.8-0.4,3.8-1.3
	c0.9-0.8,1.5-2,1.5-3.4c0-1.5-0.5-2.6-1.5-3.5s-2.2-1.3-3.5-1.3c-1,0-2.1,0.3-3.1,0.8v-0.6h-5.9v2.9H30z M35.2,113.3
	c0.3-0.3,0.7-0.5,1.2-0.5c1,0,1.6,0.7,1.6,2c0,1.4-0.5,2.1-1.6,2.1c-0.5,0-0.8-0.2-1.1-0.5c-0.3-0.3-0.5-0.8-0.5-1.5
	C34.8,114.2,34.9,113.7,35.2,113.3 M14.3,115.3c0,1.7,0.3,2.8,1,3.4c0.7,0.6,1.5,0.9,2.4,0.9c1.3,0,2.6-0.5,3.8-1.3v1.2h5.9v-2.9
	h-1.1v-6.3h-6v2.9h1.3v3c-0.5,0.3-0.9,0.4-1.5,0.4c-0.5,0-0.7-0.1-0.9-0.4c-0.1-0.2-0.2-0.8-0.2-1.5v-4.4h-5.9v2.9h1.1L14.3,115.3
	L14.3,115.3z M4.4,118.6c0.9,0.7,2,1,3.1,1c1.3,0,2.3-0.4,3.1-1.2c0.8-0.8,1.2-1.7,1.2-2.8c0-0.7-0.2-1.4-0.5-2
	c-0.2-0.3-0.3-0.5-0.6-0.8s-0.5-0.5-0.7-0.6c-0.5-0.3-1.3-0.8-2.6-1.4c-1-0.5-1.6-0.8-1.7-0.9c-0.2-0.1-0.3-0.3-0.3-0.6
	c0-0.5,0.3-0.8,1-0.8c0.9,0,1.6,0.5,1.9,1.6h3v-3.8h-3v0.8c-0.8-0.6-1.8-1-3-1s-2.2,0.3-2.9,1c-0.8,0.7-1.2,1.6-1.2,2.9
	c0,0.7,0.2,1.3,0.5,1.9c0.3,0.6,0.8,1,1.2,1.3c0.5,0.3,1.3,0.8,2.4,1.3c0.9,0.4,1.4,0.7,1.7,0.9c0.2,0.2,0.3,0.5,0.3,0.8
	c0,0.6-0.3,0.9-1,0.9c-1,0-1.6-0.6-2-1.7h-3v4.2h3L4.4,118.6L4.4,118.6z"/>
<path class="st3" d="M142.7,115.5l3.8,4h3.4v-2.9h-0.8l-2.1-2.2l1.7-1.7h1v-2.5h-5.9v2.3h1.7L142.7,115.5l0-9.2h-6v2.9h1.2v7.4h-1.2
	v2.9h5.9L142.7,115.5L142.7,115.5z M128.4,119c0.8,0.4,1.7,0.6,2.9,0.6s2.1-0.2,2.9-0.8s1.2-1.3,1.2-2.3c0-0.6-0.2-1.1-0.5-1.5
	c-0.3-0.4-0.8-0.8-1.5-1c-0.6-0.2-1.6-0.5-2.7-0.8c-1-0.2-1.6-0.3-1.8-0.4c-0.2-0.1-0.3-0.2-0.3-0.3c0-0.4,0.3-0.6,1.1-0.6
	c0.9,0,1.7,0.3,2.4,1h2.7v-2.7h-2.9v0.5c-0.8-0.4-1.7-0.6-2.9-0.6c-1.1,0-2,0.2-2.7,0.7c-0.7,0.5-1.1,1.2-1.1,2.3
	c0,0.5,0.1,0.8,0.2,1.1c0.1,0.3,0.4,0.6,0.8,0.9c0.4,0.3,0.9,0.5,1.6,0.8c0.8,0.2,1.5,0.5,2.2,0.6c0.8,0.2,1.3,0.3,1.5,0.5
	c0.2,0.1,0.3,0.2,0.3,0.4c0,0.3-0.4,0.5-1.3,0.5c-0.8,0-1.6-0.3-2.3-1.1h-2.8v2.9h3L128.4,119L128.4,119z M117.8,117.6
	c-1.1,0-1.6-0.8-1.7-2.3h7.3c-0.1-1.8-0.6-3.1-1.7-4c-1.1-0.9-2.5-1.3-4.2-1.3c-1.8,0-3.3,0.5-4.3,1.4c-1,0.9-1.6,2.1-1.6,3.5
	c0,1.5,0.5,2.6,1.6,3.5c1.1,0.9,2.7,1.3,4.8,1.3c1.3,0,2.4-0.2,3.3-0.8c0.5-0.2,0.8-0.5,1.2-0.9c0.3-0.3,0.6-0.7,0.8-1.1l-4-0.5
	C119,117.3,118.5,117.6,117.8,117.6 M116.2,114c0-0.5,0.1-1,0.3-1.3c0.2-0.3,0.6-0.5,1-0.5s0.8,0.2,1,0.5c0.2,0.3,0.4,0.8,0.4,1.2
	v0.3h-2.7C116.2,114.1,116.2,114,116.2,114 M104.8,119.2c0.9-0.2,1.6-0.5,2.4-1c0.8-0.5,1.3-1.2,1.9-2.2c0.5-0.9,0.8-2,0.8-3.1
	c0-0.6-0.1-1.1-0.2-1.6c-0.1-0.5-0.3-1-0.5-1.5c-0.5-0.9-1.1-1.7-1.9-2.3c-0.8-0.5-1.7-0.9-2.6-1.1c-0.9-0.2-2.1-0.3-3.5-0.3h-6.3
	v3.1h1v6.9h-1v3.1h6.2C102.6,119.5,103.9,119.4,104.8,119.2 M101,109.4c1,0,1.7,0.2,2.1,0.5c0.4,0.3,0.7,0.8,0.8,1.3
	c0.2,0.6,0.2,1.2,0.2,1.7c0,1-0.2,1.7-0.5,2.4c-0.3,0.6-1.2,0.9-2.3,0.9h-0.5v-6.9C100.8,109.4,101,109.4,101,109.4z"/>
</svg>
