<svg xmlns="http://www.w3.org/2000/svg" viewBox="0 0 125 115"><path fill="#FFF" d="M63.5 116c-19.8 0-39.7-.1-59.5.1-2.5 0-3.1-.6-3.1-3.1C1 76.7 1 40.3.9 4 .9 1.5 1.5.9 4 .9c39.7.1 79.3.1 119 0 2.5 0 3.1.6 3.1 3.1-.1 36.3-.1 72.7 0 109 0 2.5-.6 3.1-3.1 3.1-19.8-.2-39.7-.1-59.5-.1z"/><path fill="#F79531" d="M34.9 60.1c-7.2 0-14.3-.2-21.5-.1-2.9.1-3.6-.9-3.4-3.7 1.8-24.8 23.7-45.9 49.3-47.2C85.6 7.7 109.6 26 114 50.7c1.6 9 1.6 9.1-7.5 9.1-5 0-10 .1-15 .1-1.4.9-2.9 1.6-4.6 1.5-15.8.2-31.6.3-47.4 0-1.7.2-3.1-.6-4.6-1.3z"/><path fill="#444342" d="M34.9 60.1c1.4 0 2.7 0 4.1-.1.7.5 1.6.6 2.1 1.2 6.7 7.1 14.9 6.5 23.4 4.9 1.8-.3 3.6-.5 5.4-.5 6.2-.1 12.1-1.4 16.9-5.6 1.5 0 3-.1 4.5-.1-2.1 4.1-5.8 6.7-9.2 9.6 6.7 6.9 12.4 14.6 18.1 22.3 2.1 2.8 1.8 4.6-1.2 6.2-4.2-2.4-4.8-7.7-8.7-11-1.1 3.2-1.5 6.4-2.5 9.5-1.6 4.7 4.2 3.9 4.9 6.8-1.4 1.4-3 2.4-4.8 3-3.1.1-6.1-1.1-9.3-1.1-.6 1.8 1.5 3.1.5 4.8-1.1 1.4-2.7.8-4.1 1.3-3-4.2-6.5-7.6-12.3-6.9-5.1.4-10 1.9-14.8 3.6-1.7.6-3.4 1.2-5.3 1-.8.1-1.5-.2-2-.9-.1-.9.4-1.8 1.1-2.1 5.1-2 3.7-5.3 2-8.8-1.4-3-2.3-6.2-4-9.4-4.8 3.8-5.9 9.9-10.2 13.5-2.9-1.2-2.9-2.9-1.4-5.4C33 88 38.9 80.8 45.8 74.6c2-1.8 2.7-2.8-.3-4.4-4.3-2.4-8.2-5.5-10.6-10.1z"/><path fill="#F28022" d="M29.6 101.3c2.3-6 6.2-10.9 10.4-17 2.6 6.5 4.9 12.2 7.2 17.9.6 1.5-.2 2.1-1.4 2.7-1.8.9-3.7 1.5-5.1 3.1-1.6-.7-3.1-1.3-4.7-2-.9-4.2 2.1-7.8 1.8-12 .3-.6-.8-.2-.1-.2.3 0 .4.2.1.5-2.7 2.4-4.1 6.2-7.8 7.7-.3-.2-.4-.4-.4-.7z"/><path fill="#D26229" d="M92.8 103.3c-1.7-.7-3.3-1.5-5.1-2-1.7-.5-2-1.6-1.6-3.1 1.2-4.6 2.4-9.1 3.8-14.3 3.8 4.9 6.8 9.2 9.2 14.1-1.6 2.4-3.9 3.9-6.3 5.3z"/><path fill="#F18023" d="M42.6 108.9c6.3-3.4 13.1-5.4 20.3-5.7 2.9 2.8 4.5 5.8 1.9 9.6-2.6 0-5.2.1-7.8.1-2.2-4.1-5.3-5.4-9.8-3.7-1.3.5-2.9.4-4.4 0 .1-.1-.1-.2-.2-.3z"/><path fill="#D1632A" d="M64.9 112.8c.8-3.5-.9-6.5-1.9-9.6 7-.2 10.1 1.9 12.1 8.1-3.4.9-6.7 1.9-10.2 1.5z"/><path fill="#FBCFB0" d="M30 102c4.5-6.3 4.5-6.3 8.9-8.3 0 4.4-1.2 8.4-2.9 12.2-2.3-.8-4.3-2.2-6-3.9z"/><path fill="#F8CCAC" d="M43 109.3c2.2-.6 4.4-1.4 6.7-1.9 4.9-1.2 7 .3 7.4 5.5-4.9-.5-9.7-1.3-14.1-3.6z"/><path fill="#CE622B" d="M79.1 110c-.9-1.7-1.7-3.5-2.8-5.6 4.3-1 8 0 11.6 1.9-2.7 1.8-5.5 3.2-8.8 3.7z"/><path fill="#D36128" d="M87 60.1c-3.3 6.5-9.6 6.2-15.4 6.9-5.6.7-11.2 1.2-16.8 1.8-7.3.8-11.4-4.1-15.7-8.7H87z"/><path fill="#FEE4CA" d="M79.2 30.5c2.4-1.9 5.3-3 7.3-.1 1.7 2.5-.7 3.9-2.4 6.1-5.3 6.6-3-2.2-4.8-1.9-1-1.4-1-2.8-.1-4.1z"/><path fill="#FEE6CD" d="M43.1 49.8c.5-1.6-1.3-4.4 2.2-4.8 1.8-.2 3.9-.2 4.5 2 .7 2.4.3 4.8-2.8 5.1-1.8.2-.8 4-3.2 2.5-1.4-1-.3-3.1-.7-4.8z"/><path fill="#FEEFE0" d="M39.4 26.3c1.1 3 2.2 6.1 3.6 10-2.9-1.5-5.3-4.4-7.5.1.1-4.1 1.8-7 3.9-10.1z"/><path fill="#FEEDDC" d="M68.9 42.5v6.4c0 1.4.4 3.1-2 3.2-1.9.1-3.7 0-4.5-2.1-.7-1.8-.1-3.5 1.4-4.3 1.7-.9 3.5-1.3 3.8-3.9.4.1.9.4 1.3.7z"/><path fill="#FEEAD7" d="M49.9 34c.6 2.1-1.1 1.9-2.9 2.1-1.9.1-3.7-.3-3.2-2.5.3-1.6 1.5-4.1 2.7-4.4 3-.8 2.9 2.1 3.4 4.8z"/><path fill="#FEF2E7" d="M90 42.2c3 .3.3 5.4 4.5 2.9.5-.3 1.2.4.5 1.1-2.2 2.2.9 3.4.8 5.2-1.3 2.2-3.3-4.1-4.6.3-.1.4-1.2-.2-1.2-1v-8.5z"/><path fill="#FEF1E4" d="M24.1 50.1c-1.1 2.4-5 1.4-5.4 4.9-1-3.4-2-7 0-9.7.9-1.2 4.1-.9 5.4 1.6.9 1.1.9 2.1 0 3.2z"/><path fill="#FEEDDD" d="M64.7 36.1c-6.8-3.5-6.8-3.5-5.3-9.7 3.6 2.2 4.1 5.9 5.3 9.7z"/><path fill="#FFF3E9" d="M52.6 45.4c3.7 0 5.7 2.6 4.5 5.6-.6 1.6-2 .8-2.9 1-1.3.3-2.4-.2-2.9-1.4-.6-1.5.1-2.9 1.4-3.2 4.1-1.2-1-1.4-.1-2z"/><path fill="#FEF1E3" d="M99.3 49.6c.3 1.5 1.6 1.2 2.3 1.9-2.5.9-4.3.4-4.6-2.5-.2-2.1.7-3.5 2.9-3.9 1.9-.3 3.6.7 3.6 2.5 0 3-3.1.5-4.2 2zM31 45.9c2.9-1.1 5.8-2.1 6.7 2.7-1.6.2-3 .5-4.4.7-.3 1.9 1.7 1.1 2.4 2.3-5.5 1.1-4.8-2.6-4.7-5.7z"/><path fill="#FEECDB" d="M72.3 32.6c-.2 2-1 3.5-3.3 3.4-2.5-.1-3.5-1.7-3.3-3.9.1-2 1.4-3.3 3.6-3.2 2.2.2 2.8 1.7 3 3.7z"/><path fill="#FEF0E3" d="M54.2 30.1c-2.3 1.5 0 4.4-2.6 6.1-.8-2.5-1.4-4.9.2-6.8.7-.8 3-.9 4.2.2 1.9 1.8 1.3 4.1.7 6.7-2.6-1.7-.7-4.5-2.5-6.2z"/><path fill="#FEEDDC" d="M79.2 30.5v4c-1.6 2.2-3.5 2.2-5.3.4-1.5-1.5-1.5-3.3 0-4.8 1.8-1.8 3.7-1.8 5.3.4z"/><path fill="#FEF0E1" d="M108.7 51.6c-2.1.8-3.6.3-3.6-1.5 0-2-1.4-4.1.1-6.1.4-.5 1.6-.8 1.5-.3-.2 1.2 2.3.9.9 2.7-1.3 1.5-1.3 3.7 1.1 5.2z"/><path fill="#FEE7D0" d="M89.1 46c-2.3.6-4.4-.1-4.3 2.8.2 2.7 2.2 1.6 3.8 2.2-1.9 1.5-3.4 1.5-4.9.2-1.3-1.2-1.3-2.8-.7-4.1 1.1-2.2 2.9-2.7 6.1-1.1z"/><path fill="#FEEEDD" d="M78.5 52.2c-4.1-1.3-5.9-5.8-4.2-8.1.3-.5 1.4-1 1.3-.6-.4 1.4 2.9.8 1.2 2.8-1.5 1.7-1 3.8 1.7 5.9z"/><path fill="#FEEBD9" d="M26.1 45.1c1.7.1 3.5-.6 5 .9l.1-.1c-2 .3-3.7.6-3.3 3.4.2 1.2.4 2.8-1.7 2.7-1.4-2.4-1.4-4.6-.1-6.9z"/><path fill="#FFFEFD" d="M60.5 52.7c-1.1-1.2-1.4-1.4-1.4-1.6-.1-2-.2-4-.2-5.9.5 0 1.2-.1 1.4.2 1.1 2 .4 4.2.2 7.3z"/><path fill="#FFF" d="M81 52.5c-.8-1-1.1-1.3-1.1-1.5.1-2-.8-3.9.1-5.8 0-.1.8 0 .9.2 1.3 2 .8 4.1.1 7.1z"/><path fill="#F9B774" d="M26.1 45.1V52c-.6-.6-1.3-1.2-1.9-1.8V47c.6-.7 1.2-1.3 1.9-1.9z"/><path fill="#EDEFEE" d="M79.1 68.2c-.5 10.3-1.1 20.4-1.5 30.4-.1 2.9-2.7 3.1-4.2 3.1-2.4 0-4.6-1.4-5.3-4.3-1.3-5.8-2.9-11.5-4-17.4-.6-3.3-1.7-4.8-5.3-3.2-3 1.3-3.6-.6-4.3-3.3-1-3.5 1.5-2.6 2.9-2.8 7-.9 14.1-1.7 21.7-2.5z"/><path fill="#EEEFEF" d="M64.7 93c.2.8.2 1.7.5 2.4 1.7 3.4.7 4.8-3.1 4.6-1.3-.1-2.6.2-3.9.4-2.8.4-5.9 3.1-8.2 1.6-1.9-1.3-2.4-4.9-3.4-7.5-1.4-3.8-5.2-8.3-3.7-11.2 1.6-3.1 7.5-2 11.4-3.3 1.4-.4 2.9-.8 4.3-1 2.2-.4 3.6.4 3.2 3-.3.3-.7.6-1.1.8-1.1.4-2.3.4-3.4.6-5.4 1-6.4 3.6-3.2 8.3.8 1.2 1.7 1.3 2.9 1 1.9-.4 3.8-1.2 5.8-.8.7.3 1.4.6 1.9 1.1z"/><path fill="#E9EAE9" d="M82.1 82.9c-.4-.7-1.1-1.5-1-2 .4-1.4 1.3-.1 1.9 0 3.4.8 5 2.5 3.5 6.3-1.1 3-1.8 6.3-2.5 9.5-.4 1.6-.4 3.6-2.7 3.3-2.3-.3-1.2-2.3-1.3-3.5-.2-1.5 0-3 0-4.5 2.7-2.3 4.4-4.9 2.4-8.5-.1-.1-.2-.4-.3-.6z"/><path fill="#E87C23" d="M43.8 79.9c1.7-2.2 3-3.8 4.3-5.4.9-1 2-2.2 3.3-1.2.8.6 1.2 1.9 1.4 3 .4 2.1-1.5 1.8-2.6 2.1-1.8.7-3.8.9-6.4 1.5z"/><path fill="#CD6029" d="M87.4 79.5c-5.2-.8-7.6-2.7-5.8-8 1.8 2.6 3.5 5 5.8 8z"/><path fill="#8C8C8C" d="M80.6 91.1c.1-2.8-.7-5.8 1.5-8.2H82c3.2 2.3 2.6 5.9-1.4 8.2z"/><path fill="#636462" d="M80.6 91.1c2.3-2.4 4.5-4.9 1.4-8.2 2-.2 3.7.7 2.8 2.6-1.1 2.4.1 6.8-4.8 6.5l.6-.9z"/><path fill="#EBEDED" d="M61 82h.9c1 3.7 1.9 7.3 2.9 11-.6 0-1.2 0-1.9-.1C61.2 89.5 59.3 86 61 82z"/><path fill="#F89B3E" d="M83.4 29.4c2 2.5 1.9 3.9.3 5.6-1.4-1.7-.9-3.2-.3-5.6zM47 51.4c-1.7-2.1-1.1-3.6-.7-5.4 2.6 1.6 1.7 3.1.7 5.4z"/><path fill="#F8A048" d="M66.9 48.7c-.1 1.1-.1 2.1-1.1 2-1.4-.1-1.7-1.2-1.7-2.5.1-1.1.5-2.1 1.6-2 1.6.3.9 1.8 1.2 2.5z"/><path fill="#F89736" d="M20.7 45.9c2 1.5 1.9 3 .9 4.5-.2.3-1.1.4-1.2.3-.9-1.5-.8-3 .3-4.8z"/><path fill="#F89838" d="M69.2 34.9c-1.6-.6-1.5-1.7-1.5-2.6.1-1 .2-2.3 1.6-1.9 1 .3 1 1.6.8 2.6-.1.7-.6 1.3-.9 1.9z"/><path fill="#F89736" d="M76.4 34.7c-1.1-.3-1.4-1.2-1.3-2.2 0-1 .3-2.2 1.4-2.2 1.1 0 1.4 1.1 1.4 2.2 0 1-.3 1.9-1.5 2.2z"/><path fill="#555655" d="M67.3 77.9c-2.3-7.5 2.7-6.1 5.6-6.7 1.9-.4 4.1-1 4.2 2.7.2 7.7-.3 8.5-6.1 9.1-6.3.7-3.2-4.1-3.7-5.1z"/><path fill="#5C5D5C" d="M61 82c.2 3.7 2.6 7.1 1.9 10.9-2.1.4-4.2.6-6.2 1.1-2 .5-3 .3-3.8-2.1-3.4-9.5-3.3-9.8 8.1-9.9z"/><path fill="#8D8D8C" d="M68.2 77.6c-1.3-5.5 2.8-5.1 5.3-5.4 3.7-.5 2.1 2.8 2.4 4.6 1.1 5.4-3.5 4.3-6 4.5-3.6.4-.9-2.9-1.7-3.7z"/><path fill="#8D8D8D" d="M61.8 90.5c-1.1 2.2-3.6 2.4-5.3 2.3-4.1-.2-3.9-4.4-4-6.7-.2-3.5 4.2-2.7 5.7-2.6 3.5.3 2.1 4.5 3.6 7z"/></svg>