<svg xmlns="http://www.w3.org/2000/svg" viewBox="0 0 125 115"><path fill="#FFF" d="M63.5 116c-19.8 0-39.7-.1-59.5.1-2.5 0-3.1-.6-3.1-3.1C1 76.7 1 40.3.9 4 .9 1.5 1.5.9 4 .9c39.7.1 79.3.1 119 0 2.5 0 3.1.6 3.1 3.1-.1 36.3-.1 72.7 0 109 0 2.5-.6 3.1-3.1 3.1-19.8-.2-39.7-.1-59.5-.1z"/><path fill="#F79531" d="M112.9 46.2c.5 4.2 1.9 8.4 1.4 12.8-1.3 1.5-3.1 1.3-4.9 1.4-6.3.3-12.6-.2-18.8.3-3 0-6-.6-8.9 0-4.6-.2-9.2-.6-13.7 0-4.5-.4-8.9-.4-13.4-.3-.9 0-1.9.1-2.8.1-1.3-.1-2.6-.4-3.8-.8-11.1-1.1-22.2-.5-33.3-.4-4.6 0-5.8-1.3-4.8-5.6.7-3.1 1.1-6.2 2.1-9.2.2-.7 0-2 1.2-1.6.6.2.8 1.3 1.2 2 1.1.7 1.2 2.2 2.1 3.1 1.5-.6 2.2-1.6 2.9-3.6-3.3 4.5-3.8 2.4-4-.8-2.8-3.5-.7-6.6 1.1-9.5C27.9 15.6 44.9 6.4 66.6 8.3c20.9 1.8 35.7 13.2 44.2 32.5.5 1.1.8 2.2 1.3 3.2.1 1.7-1.2 1.5-1.9 1.1-2.4-1.2-4 1-6 1.3-4.3-.7-4.3-.7-4.8 3.1.6-2.7 2.5-2.8 4.6-2.3.8.3 1.5.7 2.1-.3 1.2-2.2 2.7-3.1 4.4-.5 1.2 1.8 1.5-1.7 2.4-.2z"/><path fill="#E67425" d="M107.1 86.3c-2.8 5.5-6.6 10.1-11.7 13.6-8.4 6.3-22.3 3.9-29.9-3.2-8.8-8.1-11.2-20.1-6-30.5 2.6-5.2 4.1-5.8 9.5-3.8 6.3 2.3 12.2 5.2 18.2 8.2 2.4 1.2 4.9 2.1 7.6 2.1 6.9.1 10.7 3.3 12.3 10.2.1 1 .4 2.2 0 3.4z"/><path fill="#434342" d="M107.1 86.3c-.9-2.1-1.7-4.3-2.8-6.4-2-3.8-3.7-7.9-9.5-5.8-2.1.8-4.5-.6-6.6-1.6-6.9-3.2-14-6.2-20.8-9.5-3.1-1.5-4.7-.7-6.3 2.2-4.9 9.3-4 19 3 27.8 5.9 7.5 16.7 10.9 26.1 8.3 1.8-.5 3.5-1 5.2-1.6-2.7 3-5.9 5-9.6 6.4-5.8 1-11.6 2.2-16.8 5.3-1.7.6-3.4.8-5.7.1 2.8-2.7 4.7-5.7 8.8-7.5-4.2-2.4-7.6-4.6-10.3-7.7-5.4-6.2-7.8-13.4-7-21.5.3-2.6-.2-4.3-2.3-5.9-3-2.3-5.3-5.1-4.6-9.3 1.2-.6 2.3-.6 3.5.1 1.2 2 1.9 4.4 5.3 4.6-.8-2.5-6.2-.9-3.4-5.1 4.9.1 9.9-.5 14.8.3 6.8-.2 12.2 3.8 18.2 6.1 2.6 1 4.9 2.6 8.2 3.7-3.3-5.3-9.3-5.7-12.5-9.8 2.6-1 5.3-.8 7.9 0 6.7 1.2 10.4 6.5 14.7 10.9 1.8 3.5 5.3 6.2 5.2 10.7-.6 2.1-1.2 3.8-2.7 5.2z"/><path fill="#D3D3D3" d="M29.1 100.9c-6-4.6-10.1-10.7-14.1-17 2.7-2.2 5.8-.6 8.8-.8 1.6 1.1 2.5 1 2.8-1.2.6-4-.6-7.8-.7-11.8 8.9-2.6 12.4-.3 13.4 8.8.2 1.8.1 3.6.4 5.4 1.1 9.5-1.3 13.3-10.6 16.6z"/><path fill="#434443" d="M24.9 83.7c-3.3.4-6.5.8-9.8.2L13.9 80c-1-2.7-.4-5.9-2.7-8.2-1.1-3.2 1.5-1.9 2.5-1.8 2.6.3 5.5.6 6.2 3.9.4 1.9.2 4 .2 6 0 .9-.2 2.1 1.3 2.2 1.7.1 1.8-1 1.8-2.3 0-1-.1-2 0-3 .3-3.2-1.4-7.2 3.9-8.3 7.8-1.5 12.6 0 15.1 4.7 3.4 6.6 2.6 13.7 2 20.5-.5 4.9-6.7 5.8-10.2 8.7-2 1.7-3.1-1.1-4.7-1.5.7-2.1 2.8-2.9 4.4-3.7 4.6-2.3 5.8-5.8 5.1-10.5-.5-3.2-.1-6.7-.8-9.8-1.7-7.1-4.2-8.2-11.7-5.9-.4 4.3 1.5 8.7-1.4 12.7z"/><path fill="#FCBF17" d="M109.7 81.3c-1.9-3.4-3.9-6.7-5.8-10.1-.8-1.3-.5-2.6.5-3.6 2.4-2.5 3.4-5.9 5.6-8.6 1.4 0 2.9-.1 4.3-.1.7 7.9-.8 15.4-4.6 22.4z"/><path fill="#D06832" d="M69 111.5c4.4-5.6 10.5-5.6 16.8-5.3-5.2 3.2-10.8 4.9-16.8 5.3z"/><path fill="#FDE4C9" d="M104.1 45.8c2.1-3.1 5.3-1.2 8-1.8.8.5 1 1.3.8 2.2-1.9 1 0 3.6-2.2 4.9-2-1.4-.1-4.3-2.1-5.8-2.4 1.2-.4 4.1-1.9 5.5-2.2.1-1-2.8-2.8-3-.5-.7-.4-1.4.2-2z"/><path fill="#FEEDDD" d="M15.2 43.7c.4.7.8 1.4 1.4 2.6.6-1.8 1.1-3.4 1.7-5.1 4.9 4.5.3 6.8-2 9.7-1.6-1.7-1.6-3.9-2.1-5.9.3-.5.7-.9 1-1.3z"/><path fill="#D2D2D2" d="M11.1 71.8c5.7 1.1 1.8 5.5 2.7 8.2-1.8-2.4-2.7-5.2-2.7-8.2z"/><path fill="#F2E720" d="M110 59.1c.1 3.2-1.6 5.7-3.5 8-1.1 1.3-2.5 2.3-2.5 4.2-4.5-4.1-8.6-8.6-14.1-11.5 6.6-1.6 13.4-.4 20.1-.7z"/><path fill="#EFE426" d="M81.9 59.7c5 1.8 9.5 4.6 13.4 8.1.6.6 1.9 1.1 1.2 2.3-.6.9-1.8.9-2.7.5-1.6-.5-3.1-1.2-4.5-1.9-6.9-3.4-13.9-6.8-21.3-9.1 4.7-.9 9.3-.8 13.9.1z"/><path fill="#FEF3E7" d="M44.3 44.1h5.8c.3 2.5-2.2 3.4-2.5 5.6 1.1.1 2.2.2 3.3.2l-.1-.1c-3.2 1.9-6.7 2.1-9.5-.2-1.8-1.5-2.5 3.1-3.6.1-.4-.9.2-6.4 1.1-9.1.7 2.4 1.2 4.8 4.1 3.2.2.6-.1-.1.2.4.5.9-.2 3.3 1.7 2.6 2.1-.6-1.8-1.4-.5-2.7z"/><path fill="#FEEFE0" d="M51.8 36.4c-.8-1.3-1.1-2-1.6-2.6-.9-1.4-.7-4.5-3.1-3.6-2.1.8-1.5 3.1-.2 4.8.4.6-.2 1.1-1 .9-2.1-.3-2.1-1.9-1.9-3.4.1-1.7-1.5-3.9.7-4.9 1.4-.6 3.7 1.1 4.2 1.7 2.2 2.1 3.7 1.6 6.1.2-1 2.1-2 4.3-3.2 6.9z"/><path fill="#FEECD9" d="M91 49c-1.7-1.4-3.6-1.1-5.5-.7 0 2.5 2.4.6 3.3 2-2.3 1.3-4.3 1-5.6-1.2-.8-1.4-.3-2.9.9-4.1 1.8-1.7 3.5-1.5 5.3.1.5.4 1.1.6 1.7.9.8 1 .8 2-.1 3z"/><path fill="#FEEDDC" d="M65.4 33.8c.6 1.5 2 1 3.4.7-.9 2-2.2 1.7-3.2 1.5-2-.5-3.1-1.9-2.6-4 .5-1.9 1.8-3.1 3.9-3 1.7.1 3.1 1.1 3 2.7-.3 2.8-3.2.3-4.5 2.1z"/><path fill="#FEF1E4" d="M76.4 51.6c-.8-3.9-.6-7-.1-10.4 6.2 5.8 6.2 5.8 5 9.7-2.3-1.3 0-4.3-2.2-5.8-2.2 1.4-.2 4.2-2.7 6.5z"/><path fill="#FFF3E9" d="M51 50c-.1-1.8.4-3.1 2.2-4 2.6-1.4-1.9-.6-.5-1.8 1.8-.5 3.6-.3 4.2 1.8.4 1.4.7 3.7 0 4.2-1.8 1.4-4.1 1.1-5.9-.2-.1-.1 0 0 0 0z"/><path fill="#FEF1E4" d="M63.9 48.4c.6 2.2-.6 2.6-2.6 2.6-1.8 0-3.3-.2-3.3-2.5-.1-2.1 3.1-2.3 2.6-4.5 3-.1 3.2 2 3.3 4.4z"/><path fill="#FFF7EE" d="M91 49v-3c.9-2.6 4.7-1.8 5.4-4.9.3 3.4 2.1 7-.6 9.6-.9 1-4 1.1-4.8-1.7z"/><path fill="#FFFAF6" d="M89.8 36.5c-2.2-2.3-.5-4.8-2.3-6.3-2.9.9-.7 3.9-2.5 5.7-1.2-2.2-1.4-4.5-.2-6.3.8-1.1 3-1.1 4.1-.2 2.2 1.7 2.1 4.1.9 7.1z"/><path fill="#FEF0E2" d="M78.8 33.9c.3 1.9 2.2.2 3.4 1.6-2.8.9-4.9.8-5.8-2-.7-2.2.5-3.9 2.8-4.4 1.9-.4 3.6.4 3.7 2.3.2 3.3-3 .5-4.1 2.5z"/><path fill="#FEF1E4" d="M30 50.6c-3.1 1-5.1.2-5.4-2.7-.2-2.2 1-3.8 3.4-3.9 1.7-.1 2.9.8 3.1 2.5.3 1.9-1.3 1.4-2.3 1.6-.7.1-1.9-.1-1.5 1.2.3 1.2 1.8-.1 2.7 1.3z"/><path fill="#EBE231" d="M53.2 59.3c-.1 5.9 4.3-.2 5.7 2.6-.9 1.5-1.1 5.1-3.1 4.7-2.6-.6-5-3.2-4.4-6.8.5-.2 1.2-.3 1.8-.5z"/><path fill="#FEF3E7" d="M104.1 45.8c0 .7-.1 1.4-.1 2-1.2.2-2.5.4-3.7.5-.2 1.9 1.9 1.1 2.3 2.2-1.3.7-2.5.7-3.5-.3-1.7-1.6-1.8-3.6-.2-5.2 1.8-1.7 3.8-1.7 5.2.8z"/><path fill="#FEEEDE" d="M70.9 45c-.3 1.9.6 4.1-.9 6.1-2.1-1.6-.2-4.1-2-5.6-2.2 1.2.1 4.1-2.2 5.6-1.5-2-1.5-4.7-.5-6.1 1.3-1.9 3.8-1.4 5.6 0z"/><path fill="#FEECDB" d="M59.3 29c2.2.1 3 1.6 3 3.6s-.9 3.5-3.2 3.5c-2.5 0-3.5-1.6-3.4-3.8 0-2.1 1.2-3.4 3.6-3.3z"/><path fill="#FFFFFE" d="M35.9 35.7c-5.2.1-6.2-2.1-4.2-9.7 1.7 1.8.8 3.8 1 5.6.3 1.5-.2 3.4 2.3 3.4.6-.1.9.1.9.7z"/><path fill="#F89F46" d="M44.3 44.1c-.1 1.8 4.2-.3 2.3 2.6-.7 1.1-1.1 3.8-3.2 2.8-2.3-1.2-1.6-3.5-.5-5.5.5 0 1 .1 1.4.1z"/><path fill="#FFF6EC" d="M35.9 35.7l-.9-.6c2.1-2.6-.1-6.1 2.1-8.8.5 3.2 2.8 6.5-1.2 9.4z"/><path fill="#FEF0E2" d="M37 44.5c-4.8.2-1.8 4.8-4 6.9-1.4-2.4-1.8-4.7-.6-6.6.9-1.7 2.8-.3 4.6-.3z"/><path fill="#FEF5EC" d="M71.7 35.8c0-2.7-3.3-7.4 3.5-6.4-3.9.8-1.2 4.7-3.5 6.4z"/><path fill="#FFFAF5" d="M71 45.1c.6-1.7 1.8-1.2 2.6-.5 2 1.8 1.1 4 1 6.6-3.3-1.5 0-5.8-3.6-6.1-.1-.1 0 0 0 0z"/><path fill="#FEF1E4" d="M42 36.3c-1.2-.6-1.4-.6-1.5-.7-.8-2.1-.7-4.3-.4-6.4 0 0 1.2-.1 1.3.1 1.2 2.1.4 4.3.6 7z"/><path fill="#EAE9E9" d="M24.9 83.7c1.1-4.2-1.1-8.6 1.2-12.7 3.3 4.1 2.1 8.7 1.3 13.2-.2 1-1 1.9-2.1 1.6-1.3-.3-.3-1.4-.4-2.1z"/><path fill="#F89E44" d="M95 47.6c-.2.9.3 2.3-1.2 2.2-1.1-.1-1.5-1.2-1.5-2.2 0-1.2.2-2.6 1.8-2.4 1.5.2.7 1.6.9 2.4z"/><path fill="#F89838" d="M60.2 32.7c-.1.8-.1 1.9-1.1 1.9-1.4.1-1.3-1.2-1.3-2.1 0-.9-.1-2.3 1.3-2.2 1.3.2 1 1.5 1.1 2.4z"/></svg>