<svg xmlns="http://www.w3.org/2000/svg" viewBox="0 0 275 168"><path fill="#FFF" d="M89 1c60.9 0 121.9 0 182.8-.1 3.7 0 4.3.9 4.3 4.4-.1 53.3-.1 106.5 0 159.8 0 3.6-1 4-4.2 4-27-.1-53.9-.1-80.9-.1.8-7-1.6-13.6-3.1-20.3-1.7-7-3.5-13.9-4.3-21.1-.8-16.8 1-33.2 5.1-49.5.6-3.8 3.3-7.4.8-11.4-.2-.4-.4-.9-.5-1.3-.4-2.6-3.8-3.8-3.3-6.9 3.8-3.4 9-4.7 12.6-8.7 5.6-6.4 7.8-16.1 4-24.2-3.8-8.1-10-12.7-19.4-13.3-12.4-.8-22.5 7.9-23.9 19.8-1 8.2 2.2 14.9 8.3 20.2 1.8 1.6 4.7 2.2 4.2 5.5-2.1 2.8-5.2 3.9-8.2 5.3-1.2.4-2.5.9-3.8 1.2-16.4 4.9-33.1 5.5-49.9 2.9-3.9-1-8-1.5-10.3-5.5-2.2-4-4.3-8.1-4.9-12.8.4-2.1 2.1-2.9 3.6-3.9 7.7-5.2 11.6-12.3 10.6-21.6-1-9.2-6.1-15.6-14.8-19C92 3.7 89.3 3.9 89 1z"/><path fill="#FFF" d="M169 169c-54.6 0-109.2-.1-163.8.1-3.7 0-4.3-.9-4.3-4.4.1-53.1.2-106.2 0-159.3C.9 1.4 2 .9 5.6.9c25.5.2 50.9.1 76.4.1.1 2.5-2.1 2.7-3.7 3.3-8.9 3.5-14 10.2-14.9 19.4-.8 9.3 3.2 16.7 11.3 21.8 1.3.8 2.5 1.7 3 3.2.5 2.4-1.1 4.4-1.6 6.6-.1.5-.2 1-.4 1.5-.7 3.9-.7 7.8.3 11.6 2 8.8 3 17.8 4 26.7.4 7.1 1.3 14.1 1.8 21.2.9 4.2.1 8-1.8 12-3 6.2-6.9 12.3-6.1 19.7 2.4 4.6 7.2 6.3 11.1 9.1 4.3 7.4 10.1 9.1 17.8 5.4 3-1.5 4.4-3.5 4.1-7.1-.8-10.5-3.9-20.5-5.6-30.8-1-6 .7-11.9.7-17.8 0-2.1 1.9-2.9 3.7-3.7 6-2.7 7-4.7 5.3-11.2-.2-1-.6-1.9-.7-2.9-.6-3.2.4-5.2 4-5.2 4.4.9 8.9.5 13.2 1.1 10.6 2.1 20.2-1.3 29.7-5.5 2.4-.9 4.5-2.3 7-3 2.7 0 2.8 1.8 2.4 3.8-.6 2.8-1.8 5.3-4.1 7.2-2 1.5-4 3-6 4.4-6.6 4.7-6.6 11.9-.1 16.9 1.3 1 2.9 1.7 3.5 3.4.3 1.1.2 2.1 0 3.2-1.8 6.8-2.5 13.8-3.9 20.6-1.3 5.1-1.9 10.4-2.5 15.6-1 8.2.9 10.6 9.2 12.1 3.1.6 6.2 1.2 6.3 5.4z"/><path fill="#D76D28" d="M184.9 128.2c1.4 6.8 2.7 13.7 4.1 20.5.5 4.7 2.1 9.2 2.7 14 .4 2.8-.2 4.9-2.7 6.3h-16c-.6-.8-3-.3-1.9-2.5 9-3 10.1-10.6 10.1-18.4 0-12.4-2.7-24.5-4.8-37.2-3.5 2.1-5.6 4.4-6.1 8-.2 1.4-.2 3.1-2.3 3.3-2.1-6.6-2.8-12.8 2.8-18.4 3.8-3.8 6.3-8.5 9.5-12.8 1.5-2 2.3-5 5.6-5.1 1.6 1.5 1 3.2.7 5-2.6 12.4-3.4 24.8-1.7 37.3z"/><path fill="#515152" d="M185 86c-4.7 7.1-9.1 14.5-15.1 20.7-2.4 2.5-1.7 5.1-1.8 7.8-.1 2.5 0 4.9 0 7.4 2.2 3.4 1.4 7.1 1 10.7-1.2 9.1-.4 18.3-.6 27.5-.1 2.7 1.6 4.7 2.2 7.1.8.6 1.5 1.2 2.3 1.8h-4c-1.6-2.7-3.7-3.9-7.1-4.2-7.3-.6-10.2-4-9.8-11.2.4-5.9 1-11.9 2.8-17.6 2.6 3 1.5 6.5 1.1 9.8-.6 4.1-.7 8.1.2 12.1.6 1.1 1.6 1.7 2.7 2.1 3.3 1.5 4.6.8 4.8-2.8.2-2.8.1-5.6.1-8.5 0-9.6.1-19.2.9-28.8.5-6.3.1-6.4-5.4-8.1-3.7-2.3-7.4-4.2-8.4-9.3-.9-4.7.1-8 3.8-10.9 4.4-3.4 10-5.7 11.2-12.1.2-1.2.9-2.7-1.4-2.7.7-2.6.8-2.7 4.5-3.2 1.7 1.8.3 3.6-.2 5.6 2.4-1.2 2.8-3.4 3.9-5.3.4-.3.8-.4 1.3-.3 3.7 3.6 3.7 3.9-.3 7.6-3.1 3-6.9 5.1-10.1 8-1.1.9-2.3 1.6-3.5 2.3-2.5 1.5-5.2 2.8-6.4 5.7-1 4.2.2 7.7 3.9 9.9 3.7 2.2 6.9.2 9.5-2.1 5.2-4.5 8.2-10.8 12.7-16 1.4-1.7 2.2-4.3 5-4.4.3.2.4.5.3.8.1.5 0 .6-.1.6z"/><path fill="#4D4E50" d="M77.3 48.8c-4.8-3.5-9.7-6.6-12.7-12.4-6.5-12.7 0-28.3 13.3-33.2 1.5-.6 3.2-.6 4.1-2.2h7c3.2 1.4 6.6 2.5 9.5 4.3 15.8 9.5 15.2 32.7-1 41.6-1 .6-2 1-2.7 2-5.3 3.5-12.3 3.5-17.5-.1z"/><path fill="#61554D" d="M189 169c2.6-2.9 2.3-6.3 1.5-9.7-.8-3.5-2-6.9-1.6-10.6 1.3 6.7 5.8 13.1 2 20.3H189z"/><path fill="#D76D28" d="M168.9 73.5c-1.5 1.1-3 2.2-4.5 3.4-1.9 1.5-3.9 2.7-6.3 3.2-7.4 3-14.9 5.4-22.9 5.8-5.4.3-5.6-.1-4.7-5.3.5-3-.2-5.9 0-8.9 2.9-2.3 3.5.8 3.9 2.2 1.1 3.8 3.5 4.3 6.8 3.9 7.2-.9 13.9-3.1 20.3-6.3 4.6-2.3 4.8-3 2.1-7.4-.4-.6-.6-1.2-.4-1.9 2.7-1.5 5.5-2.9 8.2-4.4 5-2.1 9.8 0 14.5 1.2 1 2.3 4.4 3 4.1 6.1-4.7-.2-8.5 1.4-11.7 4.9-.8.8-1.7 1.5-3 1.4-1.8-1.7-1-3.5-.1-5.2.7-1.2 1.9-2.3.6-3.9l-.9-.9c-2.5-1.2-3.1.3-3.4 2.3-.2 1.5 1 2.7 1 4.2-.7 2.1-1.7 4.1-3.6 5.6zM184.9 84.8c-4.1 5.4-8.2 10.8-12.2 16.2-1.8 2.4-3.7 4.7-6.2 6.4-3.4 2.4-7 3.4-10.5.5-3.4-2.8-5.1-6.5-3.1-11 3.8 4.7 6.9 5.3 11 .8 9.1-10.2 18.8-20.1 26.1-31.8 3.5 3.7 1.8 7.3-.2 10.9-.9 3.1-1.9 6.1-4.9 8z"/><path fill="#F58A24" d="M190 65.9c-.1 1.6.2 3.2-1.1 4.7-8.1 9.3-16.1 18.8-24.1 28.1-1.8 2.1-4 3.4-6.9 3.4-3.5 0-5.3-1.5-5-5.1 1-3.5 4.1-4.7 6.9-6.2 1.2 1.5-.5 2.6-.8 4 3.2-.4 4.8-2.9 6.9-4.9-1.1-.6-2.6.3-3.4-.9 4.5-4.3 10.4-7.1 14.5-12.6-2 .2-3.8.3-3.1-2.3-.6-1.3 0-2.2 1.1-2.9 2-1.7 4-3.5 6-5.1 2.7-2.2 5.6-2.7 8.7-.9.3.1.3.4.3.7z"/><path fill="#4E4E4F" d="M185.7 58.9c-4.9.7-9.6-1.3-14.5-1.2 0-1.6-1.1-2.1-2.3-2.8-12.3-7.7-15.5-23.8-5.8-36 5.4-6.8 17.3-10 26.4-6.9 9 3.1 15.1 11.7 15.6 20.8.8 14.2-7.6 21.4-19.4 26.1z"/><path fill="#F58A24" d="M163 62.2c.7.7 1.5 1.3 2.2 2 2.8 2.5 2.6 5.2-.7 7.1-8.5 4.8-17.6 7.6-27.3 8.3-2.2.2-2.4-1.2-3-2.5-.9-2.1-.7-4.7-3-6.1-1.2-3.1 1.2-2.9 2.9-2.9 9.1.2 17.7-2.3 26.3-4.9.7-.8 1.4-1.5 2.6-1z"/><path fill="#D66D28" d="M77.3 48.8c5.8 1.7 11.7 1.6 17.5 0 1.7 4 3.4 8 5.2 12 .7 1 .6 2-.5 2.4-1.3.6-2.6 0-3.6-1-1.4-1.3-1.4-3.2-2.2-5 1 2.6 1 4.7-2.6 4.6-5.8-1.3-10.9-4.1-16-7-.2-2.2 1.9-3.8 2.2-6z"/><path fill="#515050" d="M160.3 63.1c-7.8 4-16.3 5.3-24.9 6.1-1.4.1-3.9-1.2-4.3 1.8 1 4.6 1.5 9.2-.9 14 8.3.7 15.7-1.5 23.1-3.6 1.6-.5 2.9-1.6 4.7-1.2-8.9 5.2-18.6 7.2-28.8 6.8-.5 0-1-.6-1.6-1-1-1.6-.4-3.2.1-4.8 1.1-3.3.9-6.5-1-9.5-1.9-1.8-4.4-1.1-6.6-1.4-3.7-.5-7.6-.7-10.9-2.7-.4-.4-.5-.9-.3-1.4 4.1-.8 8.1.8 12.1 1 12.7.7 25.1-.4 37.2-4.1.7-.2 1.5 0 2.1 0z"/><path fill="#5E544F" d="M184.9 84.8c1.6-2.7 3.3-5.4 4.9-8-.1 5.6-1.7 11-2.9 16.4-2.6 11.6-1.8 23.4-2.1 35.1-3.5-10.7-.9-21.5-.3-32.3.2-3.3 2.7-6.5.4-9.8.1-.6.1-1 0-1.4z"/><path fill="#65584F" d="M109 66.1v.7c-4.9 1.2-15.4-2.2-17.9-5.8 5.2.1.5-3.8 2.3-5.3 1.6 1.1 1.4 3.3 2.5 4.6 1.1 1.4 2.3 4.5 4.1.4 1.6 4.2 5.9 3.8 9 5.4z"/><path fill="#F58B24" d="M91.1 61.1c5.7 2.9 11.7 4.6 17.9 5.8 5.1 1.2 10.3 2.2 15.6 2.2 1.4 0 3.1-.4 3.5 1.7 1 8.5-.6 10.2-9 9.6-9.7-.6-19-3.4-28.2-6-3.8-.4-6.2-3.4-9.6-4.7.6.4.9.9 1.1 1.6 5.4 19.7 8.6 39.9 11.1 60.2.9 7.1 1.9 14.1 2.5 21.3.5 6.3-2.8 9.2-9.1 7.8-2.6-3.8-2.9-8.2-3.3-12.7-.5-5.9-1.5-11.7-1.9-17.6-.3-4.4.1-8.7-.2-13.1-1.5-5.7-.7-11.7-1.9-17.5-.3-1.5.7-3.3-.8-4.6-1.2-9-2.5-17.9-3.7-26.9-.9-4-.7-8.1-.1-12.1 0-.3.1-.6.2-.9 6 0 10.3 4.5 15.9 5.9z"/><path fill="#515051" d="M82.8 130.1c1.6 10 1.3 20.2 4.2 30 3.9 2.4 8 3 12.4 1.7 5.4-1.7 6.5-3.1 5.4-8.7-2.4-12.4-4.8-24.8-7.8-37.1-1.4-5.8-2.5-11.7-3.7-17.6-.1-.7-.3-1.3-.3-2-.1-1.6-.6-3.8 1.4-4.3 1.7-.4 2 1.8 2.6 3.1 2.1 5 3.1 10.3 3.4 14.1-1.1-5-.9-11.6-.6-18.3.3-1 .6-2 1.7-2.4 2.8 2.5 1.9 6 2.6 9.1.5 2 .8 3.7 3.4 2.3 3.4-3.5 2.7-10-1.6-15.2-1.5-1-3.3-1.4-5-1.9-.5-.1-.9-.3-1.3-.5-4.1-2.1-8.3-4.1-12.2-6.5-2.6-1.6-4.8-3.3-6.4-6-.6-1.4-1.1-2.9 1.3-1.6 2.6 1.4 5 3 7.5 4.6 7.3 2.8 14 6.9 21.5 9.2 1.2.4 2.7.7 2.7 2.5-2.8-.3-3.5 1.1-2.8 3.5.4 1.4 1.1 2.7 1.5 4.1 1.8 6.4-.1 9.8-6.5 11.8-2.2.7-3 1.6-3.4 4.2-2 14.1 2.2 27.4 4.9 40.9.6 2.9.1 5.8.9 8.8.4 1.5-1.2 3.7-3.1 4.7-5.1 2.6-10.3 3.6-15.9 2-4.1-1.1-4-5.1-5.7-7.9-2.5-4.7-1.7-10-2.9-15-.3-2.9-.3-5.8-.2-8.7.2-1 0-2.7 2-2.9z"/><path fill="#D66D28" d="M159.2 111.9c2.4-.5 4.8-.9 7.4-1.5-1.4 15.8-1.6 31.4-1.8 47-.1 6.4-.6 6.7-6.3 4.2-1.3-.6-2.8-1.1-3.6-2.6 4.4-8.1 5.6-16.9 5.8-26 .1-3.3 1-6.6 1-9.9 0-3.2-.6-5.9-2.8-8.2l.3-3z"/><path fill="#D76D28" d="M114 84.9c-6.7-3-13.9-4.9-20.2-8.9-1.4-.9-2.7-1.9-4-2.8 8.1 1.2 15.8 4.5 24 5.3 3.3.3 6.5.9 9.8 1.2 2.2.1 3.1-1.6 3.5-3.5.4-1.8.7-3.5 1-5.3 2.9 5.1 1.1 10.1-.4 15.1-4.6-.2-9.3.8-13.7-1.1z"/><path fill="#F28926" d="M158.9 114.9c2.9-.1 4.2 1.3 4.1 4.2-.2 11.9-1.3 23.6-4 35.2-.5 2.3-2.2 3.6-4.1 4.7-1.9-4.2-.7-8.4-.4-12.7.3-3.5 1.1-6.9.4-10.4 1.1-7 1.4-14.2 4-21z"/><path fill="#D56D28" d="M82.1 142c1 5 1.8 9.9 1.7 15-4.8-1.1-8-4.2-10.9-7.9.1-.2.3-.4.4-.5 2.5-1.2 4.7-2.7 6.2-5.1.5-1 1.1-2.2 2.6-1.5z"/><path fill="#58524E" d="M82.8 130.1c-1 .8-.8 2-.9 3.1-2.4-.5-1.6-2-1.4-2.4-2.5 5.3-4.3 12-7.4 18.2l-.2.1c-2.5-4.2.4-7.9 1.6-11.4 1.5-4.2 3.1-8.6 5.7-12.4 1.7-2.5.5-5.5.8-8.2l.4-.3.4.3c.3 4.3.7 8.6 1 13z"/><path fill="#625852" d="M81.7 117H81c-1.6-7.2-1.6-14.7-2.2-22 2.4 3.4 1.1 7.5 2 11.2.8 3.5.6 7.2.9 10.8z"/><path fill="#A66F3C" d="M75 56c0 4 0 8.1.1 12.1-1.7-4-1.7-8.1-.1-12.1z"/><path fill="#F68B24" d="M170.7 167.2c-3.7-1.3-4.1-4.3-4-7.6.5-12.5 1-25.1 1.4-37.6.4-5.2 2.6-9.3 6.8-12.5 1.9-1.5 2.7-1.5 3 1.2 1.5 11.6 3.7 23.2 4.6 34.9.4 4.9-.2 10.2-2 15.1-1.6 4.6-5.8 5.3-9.8 6.5z"/><path fill="#757575" d="M168.9 73.5c-.2-2.4 1.8-3.8 2.7-5.7 1.9-.8 2.9-.1 2.9 1.9 0 1.5-.7 2.9-1.3 4.3.4 4.1-2.3 5.8-5.7 7.5-.9-3 2.4-5.1 1.4-8z"/><path fill="#FDD6BA" d="M162.6 88.9c2.3.6 3.8-1.8 6.4-1.6-1.7 3.5-4.1 6.1-7 8.1-1.2.9-3 1.5-4.1.4-1.1-1.1.3-2.3 1-3.4.3-.6.6-1.1 1-1.7.8-.6 1.8-1.2 2.7-1.8z"/><path fill="#665C56" d="M173.1 74c-1.2-1.9 3.3-5.2-1.5-6.1-.5-1.4-1.2-2.7-1.5-4.1-.3-1.7.3-3.2 1.9-4.1 1.7-.9 3.1-.5 4 1.3-.6.7-1.5 1.2-1.9 2.1.8-.6 1.2-1.5 1.9-2.1 2.6 1.2 2.2 3.1.7 4.8-1.4 1.6-2.2 3.2-1.7 5.4-.4 1-.8 2-1.1 2.9-.2-.1-.5-.1-.8-.1z"/><path fill="#F68B24" d="M65.7 33.2C60.1 17.6 72.7 1.9 89.1 4c1.9.2 3.4 1.1 4.9 2.1 8.4 7.2 8.3 19.8.1 28.2-6.4 6.6-20.7 9.2-28.4-1.1z"/><path fill="#D66D28" d="M65.7 33.2c5.9 3.9 11.6 7.1 19.3 4.9 12-3.4 17.9-17.7 11.4-28.2-.8-1.3-1.6-2.5-2.3-3.8 12.4 3.3 18.1 19.8 10.6 31.4-4.6 7.1-11.4 11-19.8 10.2-9.3-.9-16.1-5.4-19.2-14.5z"/><path fill="#FDD0AE" d="M184.3 66.7c1.4.2 2.4.8 2.1 2.2-.2 1.3-1 2.1-2.4 1.9-1.2-.2-2.2-.9-2-2.2.1-1.4 1.2-1.8 2.3-1.9z"/><path fill="#F68B24" d="M160.2 39c-1.9-8.9 1.3-17.5 8.5-22.2 7.5-4.9 15.3-5.9 23.3-.9 5.6 5.5 6.6 12.2 4.2 19.2-2.8 8.2-8.9 13.3-17.6 13.9-8 .6-14.5-2.5-18.4-10z"/><path fill="#D66D28" d="M160.2 39c3.4 2.8 6.2 6.6 10.7 7.9 8.2 2.4 15.2.4 20.6-6 5.2-6.1 5.9-13.1 2.6-20.5l-2.1-4.5c9.6 4.6 12.7 15.4 10.6 24-2.5 10.2-11.5 16.7-22.2 16.4-10.3-.4-18.1-7-20.2-17.3z"/><path fill="#FDD4B6" d="M153.4 69.2c-3.8 3.1-7.6 3-11 3.9-.8.2-1.8.1-2.1-.8-.5-1.3.7-1.9 1.5-2.1 3.5-.8 7-1.6 11.6-1z"/><path fill="#D66D28" d="M80.9 70.2c5.8 4.9 12.8 7.9 19.2 11.7 2.5 2.9.1 6.2.7 9.2v22.1c-2.7-7.4-3.3-14.1-6.5-20 .2 6.5 2 12.7 3.3 19 2.9 14.1 5.8 28.2 8.9 42.3 1 4.6-.8 6.8-4.9 8.2-7 2.4-11.6 1.6-14.7-2.7 6.8-.2 7.8-1.7 7.2-8.3-1.5-15.9-3.4-31.8-6.3-47.6-1.9-11.3-4.5-22.6-6.9-33.9z"/><path fill="#FDD6BB" d="M84.8 106.1c1.9 12 3.9 24 5.7 36 .5 3 .5 6.1-1.5 8.9-2.8-14.1-4.9-28.3-5.1-42.7-.2-1-1-2.2.9-2.2z"/><path fill="#FDD6BA" d="M108 71.8c-6.5-1.4-13-2.5-19.4-4.1-2.7-.7-5.2-2.1-7.7-3.4-1.3-.7-3.7-1.5-2.7-3.5.8-1.8 2.7-.2 4 .2 8.9 2.7 17 7.3 26 9.8.3.3.4.5.3.8-.3.1-.4.2-.5.2z"/><path fill="#FDD6BB" d="M108 71.8c0-.4.1-.7.1-1.1 4.1.5 8.3.9 12.4 1.4 1.2.1 2.6.4 2.4 1.9-.2 1.6-1.8 1.2-2.8 1-4.1-1-8.1-2.1-12.1-3.2z"/><path fill="#FCC69A" d="M84.8 106.1c-.3.7-.6 1.4-1 2.1-1.4-2.2-.7-4.8-1-7.2-.3-1 .1-1.3 1-1 .4 2.1.7 4.1 1 6.1z"/><path fill="#FBB06E" d="M83.9 100.1l-1 1c-1.5-1.9-.7-4.1-.7-6.2 1.1 1.6 2 3.2 1.7 5.2z"/><path fill="#D66D28" d="M108.1 101.4c-3.8 2.7-5.4 2-5.3-2.9.1-3.1-.6-6.2-1-9.4-1.1-2.3-2-4.6-.8-7.1l5.1 1.8c1.1 3.8 2.2 7.5 2.8 11.4.4 2.2.5 4.3-.8 6.2z"/><path fill="#EF8A28" d="M73.1 149c.7-7.2 4.1-13.3 7.4-20 .6 1.7 1 2.9 1.4 4.1 0 2.9.1 5.9.1 8.8-2.7 2.7-3.7 7.5-8.9 7.1z"/><path fill="#F18A24" d="M108.1 101.4c.1-4.7-1-9.2-2.3-13.6-.4-1.4-1.4-2.8.3-4 5.5 3.5 6.6 13.9 2 17.6z"/><path fill="#895E3D" d="M101 82c.3 2.4.6 4.7.8 7.1-.3.7-.7 1.3-1 2-1.6-2.9-.7-6.1-.7-9.2.3 0 .6.1.9.1z"/><path fill="#FDD1B0" d="M159.9 124.3c.1 8.4.8 16.9-2 25.3-2.5-3.8-2.2-7.5 2-25.3z"/><path fill="#FDD4B7" d="M173.5 119.1c2 1.8 2.3 4.2 2.4 6.4.5 7.9.9 15.9 1.2 23.8 0 1.1-.2 2.3-.5 3.4-.2.8-.7 1.6-1.7 1.6-1 .1-1.5-.7-1.7-1.5-.4-1.1-1-2.3-.8-3.3 1.2-8.6-.9-17.2-.4-25.8 0-1.6.3-3.2 1.5-4.6z"/><path fill="#777" d="M176.1 60.9v.5c-.1 1.9.3 4.2-2.6 4.4-1.2.1-1.4-1.1-1.4-2.1-.3-3.3 2.1-2.6 4-2.8z"/><path fill="#FDD6BB" d="M87 15.8c-.1 4.5-6.6 10.4-11.3 10.3-3.5-.1-5.9-3.2-5.8-7.2.2-5.1 5.2-9.7 10.2-9.5 3.9 0 7 3 6.9 6.4zM172.3 34.1c-3.7.1-6.3-2.7-6.3-6.7-.1-5.2 4.4-9.7 9.8-9.8 4-.1 7.1 2.4 7.2 5.9.3 4.4-5.9 10.5-10.7 10.6z"/><path fill="#FDD7BD" d="M80.4 139.6c-.3 1.3-.8 2.5-2.2 2.9-.8.2-1.1-.6-1-1.2.2-1.2.4-2.7 1.8-3.1 1-.3 1.4.6 1.4 1.4z"/></svg>