<svg xmlns="http://www.w3.org/2000/svg" viewBox="0 0 275 168"><path fill="#FFF" d="M34 169c-10.2 0-20.3-.1-30.5.1-2.2 0-2.6-.4-2.6-2.6.1-54.3.1-108.7 0-163C.9 0 2.9 1 4.5 1h169c33 0 66 0 99-.1 3 0 3.6.6 3.6 3.6-.1 53.7-.1 107.3 0 161 0 3-.6 3.6-3.6 3.6-57.8-.1-115.7-.1-173.5-.1-.6-.6-1.1-1.3-1.1-2.2-.1-2-1.5-4.7.8-5.9 2-1.1 3.6 1.1 5 2.4 2.8 2.4 5.9 3.4 9.6 3.4 8.4 0 16.6-1.2 24.6-3.2 6.2-1.5 7.8-3.9 7.7-10.3-.1-7.4-2.1-14.1-6.8-19.9-2.5-3-5.1-3.5-8.8-1.9-6.3 2.8-12.6 6.1-19.8 6.2-3.6-2.1-5-6.1-7.9-8.9-4.2-4-7.9-8.5-12.3-12.4-5-4.4-4.8-5.6.5-9.4 12-8.6 16.8-20.3 15-34.7-2-15.8-16.4-31.9-39-29.9C50.2 43.7 36.4 59 36.2 76.4c-.2 14.9 6.1 25.9 19.3 33 1.4.8 3.1 1.4 3.8 3.1 0 1.2-.8 1.7-1.7 2.3-4.7 1.9-7.9 5.6-11.3 9.2-6.2 7-11.2 14.7-15.1 23.2-2.8 6.1-2.6 11.8 1.2 17.4.9 1.2 2.3 2.5 1.6 4.4z"/><path fill="#D66D28" d="M57.3 114.1c.6-.4 1.1-.9 1.7-1.3 6.5-2.2 10.9-.3 13.9 5.3 2 3.6 4.8 6.8 3.8 11.3-.9 1.8-2.8 2-4.3 1.5-5.2-1.6-8.1.9-10.3 5.2-.4.7-.9 1.4-1.5 2-3.1 1.9-4.6 5.7-8.3 6.9 5.1 5.6 11.7 8.8 18.3 11.8 5.5 2.5 6.7 6.3 4.3 12.2h-8c-3.5-5-8.3-8.6-13.2-12-9.6-6.6-11-13.1-4.7-22.7 2.8-4.2 4.2-8.3 1.3-12.9.9-4 4.2-5.4 7-7.3z"/><path fill="#F68B24" d="M50.9 120.8c4.1 4.5 3.2 9-.3 13.2-7.9 9.5-4 16.7 4.7 22.5 3.4 2.3 6.7 4.7 9.6 7.7 1.3 1.4 2.5 2.7 2.2 4.7h-8c-6.9-5.8-15.5-9.5-20.7-18-.2 5.7 2.8 9.5 5.5 13.4.9 1.4 2.9 2.4 2.2 4.6h-7c-8.1-5-10.7-12.2-7.4-21.1 3.3-8.9 8.3-16.8 14.6-24 1.4-1.1 2.2-3.2 4.6-3z"/><path fill="#535353" d="M110 137c6.5-1.2 12.5-3.5 18.5-6.2 6.8-3 9.6-2.4 13.3 3.9 4.1 7 5.9 14.6 5.2 22.8-.4 4.8-4.4 6.3-7.9 7.1-9.6 2.3-19.4 3.8-29.3 3.4-3.1-.1-5-2.3-7.1-3.9-1.3-1-2.4-2.2-4.1-3.7.2 3.4.3 6 .5 8.7h-4c-.7-.8-1.3-1.6-1.3-2.6-.2-9.9-1.1-19.8.5-29.6.9-1.5 1.8-.9 2.5.2.9 1.4 1.2 2.9 1.5 4.5.2 1.6.2 3.3.4 4.9 1.4 9.8 7.8 15.4 17.8 15.2 6.6-.1 13.2-1 19.7-2.3 4.2-.8 5.8-3.2 5.5-7.3-.4-5.9-1.6-11.5-5.3-16.3-1.8-2.6-4.1-2.2-6.6-1.2-4.8 1.9-9.7 3.2-14.8 4.1-1.6.3-3.2.7-4.8-.2-.4-.5-.5-1-.2-1.5z"/><path fill="#F58B24" d="M60 138c3.6-8.4 4-8.6 15.8-7.9 3.6 5 2.5 11.1 3.5 16.7.8 4.7 1.7 9 5.3 12.5 1.6 1.7 2.8 1.7 4.5.7 2.2 3 2 6 .1 9h-9c-1-1-1.3-2.3-1.3-3.7 0-6.2-3.3-9.8-8.9-11.8-2.5-.9-4.8-2.2-7.2-3.5-6.4-3.6-6.8-5.5-2.8-12z"/><path fill="#D76D28" d="M89 169c-.4-3 .9-6.1-.8-9 3.2-11.7-3-21.9-5.7-32.5-1.2-4.7-1.1-9.1-.2-13.7.6-2.8 2.3-3.5 4.1-1.5 2.7 2.9 6 5.3 7.1 9.4-.4 3.2.6 6.2 1.3 9.2.4 1.7 1.2 3.4.3 5.2 0 10.9-.1 21.9-.1 32.8-2 .1-4 .1-6 .1z"/><path fill="#525353" d="M60 138c-1.3 8.6-1.3 8.6 6.8 12.7.6.3 1.1.8 1.7.9C77.7 153.9 81 160 80 169h-5c1.1-6.8-1.7-10.6-8.3-12.8-6.9-2.3-12.7-6.7-17.3-12.9 3.5 1.1 5.4-.4 7-3 .7-1.2 1.8-2.6 3.6-2.3z"/><path fill="#FDD6BB" d="M46 169c-2.4-3.5-5.8-6.3-7.4-10.4-.7-1.7-1.5-3.3-1.8-5.1-.3-1.8-1-4.6 1.3-5.2 1.8-.5 1.9 2.3 2.5 3.7 1.3 2.9 3.7 4.5 6.1 6.3 4.3 3.3 9.3 5.7 12.2 10.6-4.2.1-8.6.1-12.9.1z"/><path fill="#525354" d="M47 124c-4.9 6.8-9.6 13.8-13.3 21.5-3.9 8.1-2.8 15 3.4 21.2.7.7 1.2 1.5 1.9 2.3h-5c-.8-1.3-1.4-2.6-2.3-3.8-4.3-5.7-4.7-11.7-1.7-18.1 4.1-8.9 9-17.2 16-24.1.9-.3 1.3.1 1 1z"/><path fill="#525353" d="M92.8 122.1c-2.3-3-4.6-6-6.9-9.1-.5-.7-1.2-1.3-2.1-.9-1.1.5-.2 1.4-.4 2.1-3.1 11.4 3.6 21 6 31.3 1.2 5.2 2.1 9.9-1.3 14.6-1 2-1.7 2.8-4.1.8-6.2-5.3-5.7-12.6-6.8-19.5-.6-3.7-1-7.5-1.5-11.2-1-3.3 1-8-4.2-9.5-.1 0-.3-.3-.3-.4 0-9.3-7.6-5.9-12.3-7.4-6.1-3.8-12.6-6.9-16.9-13.1-8.4-12.2-9.9-25.1-3.6-38.3C44.8 48.3 55.7 41.4 70.7 41c15.4-.4 29 9.3 34.2 23.6 5.1 14.3 2.2 27.2-7.8 38.6-2.2 2.5-4.8 4.6-7.8 5.9-3.2 1.4-2.4 2.6-.4 4.4 6.6 5.8 12.6 12.1 18 19 1.1 1.4 2 3 3 4.5v1c1.1 1.5.3 2.5-1 3.2-1.6.9-3 0-4-1.2-3.3-3.5-5.7-7.7-8.7-11.6-1.3-1.8-3.3-3.6-3.4-6.3z"/><path fill="#888" d="M247.1 7.9c7.6.7 17 6.8 16 17.3-.8 8.1-.6 16.3 0 24.5.6 8.4-4.7 14-12.2 16.5-7.8 2.5-15.8 2.9-23.9 3-.3-.5-.3-1 .1-1.4 5.1-3.1 11.1-1.4 16.5-2.9 5.2-1.4 10.1-3 13.5-7.5 1.4-1.9 1.4-4 1.4-6.2 0-8.8.1-17.6.1-26.4 0-7.7-1.7-10.2-8.9-13.1-1.4-.6-2.9-.8-3.7-2.2-.3-1.2-.2-1.9 1.1-1.6z"/><path fill="#949393" d="M247.1 7.9c-.4.4-.8.7-1.1 1.1-1.8 1.8-4 1.1-6.1.9-12.6-1.4-25.1-2.6-37.8-2.4-24.8-2.1-49.3.2-73.9 3.1-1.5.2-2.9.5-4.4.2-1-.3-1.6-.9-1.9-1.9 3.9-2.6 8.6-2.2 12.8-2.7 26.5-3.1 53.2-2.5 79.9-2 10.3.1 20.6 1.8 30.9 2.8.5.1 1.1.6 1.6.9z"/><path fill="#8A8A89" d="M121.8 8.9c.4.4.8.7 1.2 1.1-.2.8-.7 1.6-1.4 2-6.4 3.4-7.7 8.9-7.3 15.5.6 9.6-.7 19.2.8 28.8.5 2.9 2.9 4.1 4.9 5.7 1.4 1 3.2 1.5 4.2 3.2-.1.8-.4 1.4-1.4.9-7.3-1.3-12.8-6.9-13-14-.3-10-.3-19.9 0-29.9.2-7.5 5.6-11.1 12-13.3z"/><path fill="#908F90" d="M122.8 66.1c.4-.3.8-.6 1.1-1 2.9-1.6 5.9-.2 8.8-.1 3.2 1.1 6.5.3 9.8.9.6.1 1.1.2 1.7.4 9.3.6 18.5 1.7 27.8 1.4 2.2-.1 4.8-.8 6.1 2-3.5 2.1-7.5-.2-11.1 1.1-11.3-.4-22.6-1-33.8-2.6-3.5-.5-7.2.3-10.4-2.1z"/><path fill="#888787" d="M167.1 70.8c3.6-1.8 7.4-.3 11-.9 1.3-.1 1.7.9 1.9 1.8.9 4.6-3.2 12.3-7.8 14.7-.9-.2-1.5-.5-1.2-1.6.6-.8 1.3-1.5 1.8-2.3 5.5-9 4.5-11.1-5.7-11.7z"/><path fill="#7E7E7E" d="M205.9 70.9c-3.6 7.8-9.8 12.6-17.8 15.2-1 .5-1.3-.1-1.4-1 .4-1.2 1.3-1.9 2.3-2.4 5.4-2.6 10-6.1 12.6-11.8.4-.9 1.3-1.4 2.3-1.6 1.1.1 2.2.1 2 1.6z"/><path fill="#8C8C8C" d="M187 85.1c.4.3.7.7 1.1 1-6.9 3.3-14.2 3.8-21.9 3.4 2.1-1.1 2.9-3.4 4.7-4.6.4.4.9.8 1.3 1.2 3.4 1.3 6.4-.5 9.6-.9 1.8-.2 3.5-1.6 5.2-.1z"/><path fill="#909090" d="M205.9 70.9c-.7-.3-1.4-.7-2.1-1 .1-.7.4-1.5 1-1.5 7-.6 13.9-2.5 21-1.2.5.1.8.5 1.2.9v1.1c-6.9 1.3-14 1.4-21.1 1.7z"/><path fill="#695F58" d="M47 124l-1-1c3.2-3.7 6.2-7.6 11.3-8.8-2.1 2.2-4.3 4.4-6.4 6.6-1.3 1-2.6 2.1-3.9 3.2z"/><path fill="#F68B24" d="M92.8 122.1c4.1 5 8 10.1 11.5 15.5 1.3 2 3.4 5.9 5.7.4 7.2-.5 14-2.7 20.6-5.2 2.9-1.1 5.1-1.4 6.6 1.9 2.6 6.7.5 12.6-4.1 17.3-5.1 5.2-11.8 6.7-18.8 4.6-7.9-2.3-13.8-7-17.2-14.6-.6-1.9-1.3-3.8-1.9-5.8-1.2-4.7-4.1-9-2.4-14.1z"/><path fill="#D66D28" d="M97 142c4.3 3.5 7.1 8.4 12.2 11.3 13 7.4 29.5-.5 27.8-16.7-.1-.6.1-1.3.1-2 5.2 6.1 6.1 13.3 5.9 20.9-.1 2.4-1.3 3.9-3.8 4.5-9.1 2-18.3 3.2-27.6 3-5.1-.1-13.3-8.1-13.9-13.2-.2-2.6-.4-5.2-.7-7.8z"/><path fill="#FDD6BB" d="M73.3 149.5c-4-3-4.8-10.8-1.6-16.9 1.6 5.8 1.1 11.2 1.6 16.9z"/><path fill="#F68B24" d="M41.6 90.2c-6.5-13.3-1.5-29.5 9.2-38.1 11.1-9 26.7-9.5 38.5-1.3 1.3.9 2.5 2.2 3.7 3.3 8.3 11.1 3.2 28.5-6.1 37.2-10.7 10-25.5 11.6-38.3 4.6-2.8-1.6-4.4-4.2-7-5.7z"/><path fill="#D66D28" d="M41.6 90.2c1.7-.4 2.7.9 3.9 1.8 8.9 6.9 18.8 8.8 29.5 4.9 10.8-4 17.2-11.8 20.1-22.9 1.9-7.1-.3-13.4-2.1-19.9 9.3 8 11.8 18.5 9.7 29.8-2.1 11.7-9.3 20.2-20.7 24.3-16.5 5.7-33.7-2-40.4-18z"/><path fill="#EBEAEB" d="M132.8 66.1c-3 .2-6-.2-8.9-.9-4-1.4-7.7-3.2-9.8-7.1 1.5-1.3 3.2-1.1 4.7-.2 5.3 3.3 11.3 3.8 17.3 4.3 11.4.9 22.8 2.7 34.3.5 5.5-1 6-1.4 6.1-7 0-3.3-.1-6.7 0-10 .1-5.8.9-6.8 6.6-7 10.5-.3 21 .1 31.5 0 3.4 0 6.7-.2 9.8-1.5.9-.4 1.9-.7 2.7-1.3 4.4-3.1 3.2-19-1.6-21.3-5.5-2.7-11.6-2.9-17.5-4-2.6-.5-5.9-.4-6.1-4.4 14.8-.4 29.4 1.6 44 3 2.5 1 5.1 1.7 7.4 3 4.3 2.4 6.9 5.8 6.8 11.3-.3 9.5-.1 19-.1 28.4 0 2.4-.1 4.7-1.9 6.5-2.8-.1-2.5-2.4-2.5-4-.1-6.3-.3-12.6.4-18.9.7-6.4 1.8-13.1-3-19.7 4.4 6.4 3.7 12.7 2.5 19-.5 2.6-2.8 4-5.3 4.8-3 1-6.1 1.8-9.1 2.7-6.7 1.9-6.8 2.1-6.9 8.9v6c-.2 5.6-1.6 8.2-6.9 8.7-8.5.8-16.7 3.6-25.6 2.3-11.2-1.6-22.6 0-33.9.4-4.2.1-8.3.4-12.4-.7-4.2-1.2-8.6.9-12.8-.5-2.9-1.8-6.5-.1-9.8-1.3z"/><path fill="#E2E2E2" d="M142.9 67.1c6 .4 11.9-.9 18.1.6 5.6 1.3 11.8-.2 17.8-.8 9.4-.9 18.8-2.2 28 1 .6.2 1.5.4 2 .1 6.2-3.3 13.3-2.3 19.8-4 3.2-.8 4.7-2.7 4.4-6.2-.2-2 0-4 0-6 0-9.2 0-9.2 8.7-11.6.3-.1.7-.1 1-.2 12.8-3.2 14.2-5.4 12.4-18.3-.6-3.9-4.5-5.5-5.8-9.1 5.6 1 8.7 5.6 8.8 13 .2 9.1-1.7 18.2-1 27.4.1 1.8-.6 3.7 1.2 5.1-3.6 4.6-8.4 7-14 7.8-5.7.9-11.5 1.4-17.2 2.1-7.8.2-15.5.3-23.2 1.9-3.8 7.1-9.2 12.3-16.8 15.2-4.3.9-8.6 1.9-12.9 2.8-1 .2-3.2.9-1.8-1.7 4.3-4.5 7.8-9.3 5.8-16.1-2.1-1.5-4.5-.8-6.7-.8-9.6-.4-19.2-.4-28.6-2.2z"/><path fill="#FFF" d="M202 5.9c2.9 4.8 8.2 2.4 12.2 3.9 2.3.9 4.9.7 7.3 1.2 8 1.7 9.4 3.6 9.4 11.6v4.5c0 9.3-3.3 12.7-12.9 12.8-11.8.1-23.6.2-35.4-.1-4.3-.1-5 1.6-4.8 5.3.2 4.5-.1 9 .1 13.5.1 2.7-.5 4.2-3.6 4.7-9 1.5-18 2.2-27.2 1-7.4-.9-14.8-1-22.2-2.3-4-.7-6.6-4.7-11-4.1-1.3-2.4-1.5-5-1.5-7.7.1-7.8.6-15.6-.1-23.4-.8-8.7 2.8-13.9 10.5-17 26.4-3.9 52.7-5.5 79.2-3.9z"/><path fill="#E2E2E2" d="M132.8 66.1c3.4.4 6.9-1.2 10.1 1-3.3-.1-6.8.4-10.1-1z"/><path fill="#FDD3B4" d="M123.8 145.9c-1.5 0-2.3.1-3.1 0-1.6-.3-3.5-.5-3.7-2.6-.1-1.8 1.6-2.4 3-2.7 2.7-.6 5.5-1 8.3-1.3 1.4-.2 2.8 0 3.3 1.5.6 1.7-.7 2.8-1.9 3.7-1.8 1.2-4.2 1.3-5.9 1.4z"/><path fill="#FDD6BB" d="M48.8 66.2c-.1-9.8 10.8-18.3 19.8-15.5 5.7 1.8 8.1 6.9 5.4 12.2-2.9 5.5-7.3 9.5-13.1 11.6-6.8 2.6-12.1-1.1-12.1-8.3z"/></svg>