<svg xmlns="http://www.w3.org/2000/svg" viewBox="0 0 125 115"><path fill="#FFF" d="M63.5 116c-19.8 0-39.7-.1-59.5.1-2.5 0-3.1-.6-3.1-3.1C1 76.7 1 40.3.9 4 .9 1.5 1.5.9 4 .9c39.7.1 79.3.1 119 0 2.5 0 3.1.6 3.1 3.1-.1 36.3-.1 72.7 0 109 0 2.5-.6 3.1-3.1 3.1-19.8-.2-39.7-.1-59.5-.1z"/><path fill="#F79531" d="M17.1 60.1c-6.7-.3-6.7-.3-5.4-7.6C16 28.3 36.3 10 60.1 9c26.1-1.1 47.8 14.8 54.2 39.6.6 2.1.7 4.2.7 6.4 1.3 3.4 0 5.3-3.5 5.2-11.6-.2-23.2.6-34.9-.5-6.4-.6-12.8.8-19.3.8-7-.1-14-.8-20.9.5-5 .8-9.9.5-14.9.4-1.6-.1-3.1-.1-4.4-1.3z"/><path fill="#434341" d="M17.1 60.1h3.6c2.5 1.9 1.3 4.9 2.4 7.2 3.5 10.3 12.5 16.9 22.4 16.3C56 83 64.6 75.7 67.2 65.4c.5-2-.1-4.4 2.1-5.9 1 0 2.1-.4 3 .5.1 11.6-5.3 19.9-15.3 25.6 5.7 5.9 11.9 11.2 16.4 18.1 1 1.6 2.3.7 3.5.4 4.4-.8 8.4-2.9 12.6-4.4 1.8-.7 3.3-1.3 5.1-.1 2.3 1.6 1.4 2.5-.5 3.4-6.5.3-12.5 2.8-18.5 4.8-3.3 1.1-5.3.7-7.1-2-2.3-3.4-4.8-6.7-7.3-9.9-1.5-2.1-3.2-4.1-5.2-6.2-1.5 2.4-.9 4.4-.4 6.5 1 3.8 2.3 7.6 3.4 11.4.5 1.7 1.4 3.4.2 5.2-3.2-.1-6.3-.4-9.2-1.9-2.9-3-1.7-7.1-2.7-10.6-.3-1.4-.2-3-.8-4.3-1.8-4.2-4-7.9-9.6-7.2-1 .1-2 .1-2.8-.7 1.4-1.7 0-2-1.2-2.6-10.4-5.4-15.3-14-15.8-25.4z"/><path fill="#EDEAE7" d="M115.8 59.6c0 3.1 1.1 6.4-.7 9.4-2.8 2.1-6.1 1.5-9.1 1.3-7.5-.6-14.6-2.8-21.4-6.1-3.1-1.5-3.2-1.9-2.8-4.7 11.3 0 22.6-.1 34 .1z"/><path fill="#D26129" d="M33.9 88c8.5-2.4 13.9 2.2 14.1 12-.3.4-.7.9-1.2.8-4.5-.8-7.2 2.1-9.8 5-2.4-.9-4.3-2.4-6.2-4.1-1.5-2.2-1-5-2.2-7.4.5-3.2 3.4-4.4 5.3-6.3z"/><path fill="#DEDEDE" d="M81 59.8c5.3 5.3 12.5 6.3 19.2 8.2 4.9 1.3 9.9.9 14.8 1-.4 1.7.7 3.6-1.1 5-6.7-2.4-8.6-1.8-12 4.1-1.8 2.3-3.7 4.6-6.5 5.9-1.4.6-2.9 1.6-4.1.4-1.5-1.4.3-2.6.7-3.9.2-.6.6-1.2.9-1.8 1.2-1.7 2.1-3.5 2-5.6 1.4-2.7-1-2.6-2.3-3.1-3.9-1.2-7.6-3.2-11.2-5-2.2-1.1-3.8-2.4-3.4-5.2 1.1-.3 2-.4 3 0z"/><path fill="#F07F22" d="M61.8 95.1c.6.7 1.3 1.5 2 2.2 3.1 3.3 4.6 10.1 8.7 9.9 3.7-.1 8.2-2.4 12.4-3.3 2.9-.7 5.8-4.8 9.2-.9-2.8 2.7-6.2 4-10.1 4.7-4.5.8-7.8 5.1-12.8 4.8-2-.1-3.9.2-5.9.3-2.9-2.2-2-5.8-3.3-8.6-.5-1.7-1.3-3.4-1.5-5.2-.4-1.5-1.2-3.4 1.3-3.9z"/><path fill="#D06129" d="M61.8 95.1c-2.3 3.4 1.5 6 1 9.2-.8 2.8 2.1 5.8-.2 8.5-1.2 0-2.4 0-3.6-.1-1.4-4.8-2.5-9.6-4.3-14.2-1.5-3.9-1.4-7.5-.1-11.7 3.4 2.3 5.1 5.5 7.2 8.3z"/><path fill="#EE7F23" d="M37.1 105.8c1.2-6.7 6.2-6 11-5.8 1.5 3.5 1.1 7.3 1.8 10.9-1.4.4-2.6-.4-3.7-1-.3-.2-.5-.4-.7-.7-.4-.7-.5-1.5-.4-2.3-.3.7-.4 1.6-1.1 2-2.7-.2-4.8-1.6-6.9-3.1z"/><path fill="#E59244" d="M81 59.8c-1 .1-2 .1-3 .2-.3.4-.7.5-1.1.1H69c-2.2 1.7-4.8 1.4-7.4 1.4-6.6.2-13.1.1-19.7.1-2.1 0-4.3.2-6-1.6 1.7-1.7 3.8-.9 5.7-.9 22.9-.1 45.9-.1 68.8 0 2.9 0 5.1-.2 4.5-3.9 1.3 1.3.7 3 .8 4.6-11.5-.1-23.1 0-34.7 0z"/><path fill="#858484" d="M77 60.1c.4 0 .7-.1 1.1-.1 2.9 6.2 9.5 6.6 14.7 9.1 1.4.7 5.3.4 2.3 3.9-.3-2.7-2.9-2.1-4.5-2.9-5-2.8-11.9-2.9-13.6-10z"/><path fill="#939393" d="M93 78.6c.4 1.9-1.4 3.2-1.5 5.1 5.2 1.1 7-3.9 10.6-5.7-1.5 4.8-5.3 6.8-9.8 7.9-1.1.3-2.5.3-3.3-.6-1.1-1.3.5-2 1.1-2.8.9-1.4 1.9-2.6 2.9-3.9z"/><path fill="#EC8026" d="M28.8 93.9c3.5 1.8 1.8 5 2.1 7.8-2-1.1-3.7-2.7-5-4.6-.1-2.1 1.1-2.9 2.9-3.2z"/><path fill="#969596" d="M102 78c.8-2.4.7-5.9 3.8-5.9 2.6 0 6.2-2 8.1 1.9-.6 0-1.3.2-1.9.1-4.1-.7-7.7-.1-10 3.9z"/><path fill="#5D4F45" d="M28.8 93.9c-1.3.8-2.2 1.9-2.9 3.2-1.2-.6-1.3-1.5-.5-2.3 2.6-2.6 4.9-5.6 8.6-6.8-1.7 1.9-3.5 3.9-5.2 5.9z"/><path fill="#58483F" d="M62.7 112.8c.4-2.8-1.6-5.7.2-8.5 1.8 2.6 1.4 5.7 2.3 8.6-.9-.1-1.7-.1-2.5-.1z"/><path fill="#FACCAC" d="M44 108.9c.2-2.2-.6-4.5.9-7.1 1.8 2.8.9 5.5 1.2 8-.9.2-1.8.3-2.1-.9z"/><path fill="#F58020" d="M36 60c8.7 0 17.3.1 26 .1.4 6.7-4.4 10.1-8.8 13.5-8.1 6.2-25.9 5.6-31.2-5.5-1.7-2.4-1.1-5.2-1.4-7.9 5.2-.1 10.3-.2 15.4-.2z"/><path fill="#FEEAD5" d="M87.1 49.8c1.1-.9 2-2 3.2-2.8 2.5-1.6-2.1-.7-.5-1.9 2.7-.7 4.4.1 4.4 3.2 0 1.2.5 1.9 1.8 1.6.3.4.2.9-.1 1.3-2.9 1.6-5.9-.1-8.9.5-.6-.6-.5-1.3.1-1.9z"/><path fill="#FEF3E7" d="M95.9 51.2c0-.4.1-.8.1-1.3-.9-1.7-1.6-3.5.7-4.6 1.3-.7 3.3-1 4.1.3.8 1.3.6 3.3-1.3 4.2-1.4.6-1 .9.1 1.1 1.7.4 2.1 1.4 1.3 2.9-1.5-.8-3.8.3-4.7-1.9-.3-.1-.4-.4-.3-.7z"/><path fill="#FEF0E1" d="M87.1 49.8c0 .6-.1 1.3-.1 1.9-1.8-.1-4.1 1.3-5.3-1.1-1.1-2.3.8-2.8 2.4-3.9 1.2-.9-1.8.1-1.2-1.4 3.9-.1 3.9-.1 4.2 4.5z"/><path fill="#FEF0E2" d="M39.8 49.9c.3 1.9 2.2.2 3.4 1.6-2.8.9-4.9.8-5.7-2-.7-2.2.5-3.9 2.8-4.4 1.9-.4 3.6.3 3.7 2.3.1 3.3-3.1.5-4.2 2.5z"/><path fill="#FEF1E4" d="M63.1 51.6c-3.1.7-5.1.2-5.5-2.7-.3-2.2.9-3.8 3.3-3.9 1.7-.1 2.9.7 3.2 2.4.3 1.9-1.2 1.5-2.3 1.6-.7.1-1.9-.2-1.6 1.1.3 1.4 1.8.1 2.9 1.5z"/><path fill="#FEECD9" d="M31.9 50.2c-1.7.7-3 2.8-5.7 1.4 3.1-1.1 3.8-2.5.7-4.4-1.4-.8-2-2.2-1.2-3.8.7-1.4 2-1.7 3.4-1.3.6.2 1.2.6.7 1.4-1.3 2.3-1.3 2.3 2 4.3.8.8.8 1.6.1 2.4z"/><path fill="#FEE9D4" d="M77 51.8c-1.8-1.4-.2-3.5-1.5-5.6-1.1 2-2.1 3.8-3.6 6.5-1.3-2.9-2.2-5-3.1-7.1 3.1 3.8 5.6-1.6 8.2-.3 1 2.1.6 4.3 0 6.5z"/><path fill="#FEF3E8" d="M31.9 50.2v-2.4c.2-1 .1-2 .5-2.8.3-.6.6-2.3 1.9-1.3.5.4 1.7 1.2 1 2.3-1.2 2-.8 3.8.7 5.6-1.8.9-3-.1-4.1-1.4z"/><path fill="#FEF1E5" d="M51.8 55.6c3.1-3.4 2.1-6.3 2-9 0-.5-.9-1.2.1-1.4.5-.1 1.4 0 1.7.3 1.7 1.8-.1 8.1-3.8 10.1z"/><path fill="#FFF8F2" d="M47.2 42.5v9.1c-2.5-2.8-2-5.9 0-9.1z"/><path fill="#FDDFC1" d="M96.2 52c1.2 1.4 3.7-.2 4.7 1.9-1.4 1.8-3.1 1.5-4.7.6-1.4-.8-.2-1.7 0-2.5z"/><path fill="#FEF4EA" d="M77 51.8v-6.5c1.2-.1 2.5-.6 4.6.7-5.5-.4-1.6 4.7-4.6 5.8z"/><path fill="#D36228" d="M22.1 68c6.6 6.9 14.5 9.7 23.8 7.4 8.2-2 13.2-7.8 16.1-15.4h7c-.2 13.3-9.1 23.4-21.9 24.9-11 1.3-22-6.1-25-16.9z"/></svg>